G04 #@! TF.GenerationSoftware,KiCad,Pcbnew,(2018-02-15 revision 29b28de31)-makepkg*
G04 #@! TF.CreationDate,2018-12-22T18:26:04+03:00*
G04 #@! TF.ProjectId,CS5490_Breakout,4353353439305F427265616B6F75742E,rev?*
G04 #@! TF.SameCoordinates,Original*
G04 #@! TF.FileFunction,Legend,Bot*
G04 #@! TF.FilePolarity,Positive*
%FSLAX46Y46*%
G04 Gerber Fmt 4.6, Leading zero omitted, Abs format (unit mm)*
G04 Created by KiCad (PCBNEW (2018-02-15 revision 29b28de31)-makepkg) date 12/22/18 18:26:04*
%MOMM*%
%LPD*%
G01*
G04 APERTURE LIST*
%ADD10C,0.300000*%
%ADD11C,0.200000*%
%ADD12C,0.010000*%
%ADD13C,0.120000*%
G04 APERTURE END LIST*
D10*
X157930000Y-100042857D02*
X157930000Y-98842857D01*
X157930000Y-99300000D02*
X157815714Y-99242857D01*
X157587142Y-99242857D01*
X157472857Y-99300000D01*
X157415714Y-99357142D01*
X157358571Y-99471428D01*
X157358571Y-99814285D01*
X157415714Y-99928571D01*
X157472857Y-99985714D01*
X157587142Y-100042857D01*
X157815714Y-100042857D01*
X157930000Y-99985714D01*
X156958571Y-99242857D02*
X156672857Y-100042857D01*
X156387142Y-99242857D02*
X156672857Y-100042857D01*
X156787142Y-100328571D01*
X156844285Y-100385714D01*
X156958571Y-100442857D01*
X155187142Y-98842857D02*
X154501428Y-98842857D01*
X154844285Y-100042857D02*
X154844285Y-98842857D01*
X154101428Y-100042857D02*
X154101428Y-99242857D01*
X154101428Y-98842857D02*
X154158571Y-98900000D01*
X154101428Y-98957142D01*
X154044285Y-98900000D01*
X154101428Y-98842857D01*
X154101428Y-98957142D01*
X153587142Y-99985714D02*
X153472857Y-100042857D01*
X153244285Y-100042857D01*
X153130000Y-99985714D01*
X153072857Y-99871428D01*
X153072857Y-99814285D01*
X153130000Y-99700000D01*
X153244285Y-99642857D01*
X153415714Y-99642857D01*
X153530000Y-99585714D01*
X153587142Y-99471428D01*
X153587142Y-99414285D01*
X153530000Y-99300000D01*
X153415714Y-99242857D01*
X153244285Y-99242857D01*
X153130000Y-99300000D01*
X152558571Y-100042857D02*
X152558571Y-98842857D01*
X152044285Y-100042857D02*
X152044285Y-99414285D01*
X152101428Y-99300000D01*
X152215714Y-99242857D01*
X152387142Y-99242857D01*
X152501428Y-99300000D01*
X152558571Y-99357142D01*
X150958571Y-100042857D02*
X150958571Y-99414285D01*
X151015714Y-99300000D01*
X151130000Y-99242857D01*
X151358571Y-99242857D01*
X151472857Y-99300000D01*
X150958571Y-99985714D02*
X151072857Y-100042857D01*
X151358571Y-100042857D01*
X151472857Y-99985714D01*
X151530000Y-99871428D01*
X151530000Y-99757142D01*
X151472857Y-99642857D01*
X151358571Y-99585714D01*
X151072857Y-99585714D01*
X150958571Y-99528571D01*
X150387142Y-100042857D02*
X150387142Y-99242857D01*
X150387142Y-99357142D02*
X150330000Y-99300000D01*
X150215714Y-99242857D01*
X150044285Y-99242857D01*
X149930000Y-99300000D01*
X149872857Y-99414285D01*
X149872857Y-100042857D01*
X149872857Y-99414285D02*
X149815714Y-99300000D01*
X149701428Y-99242857D01*
X149530000Y-99242857D01*
X149415714Y-99300000D01*
X149358571Y-99414285D01*
X149358571Y-100042857D01*
X147872857Y-100042857D02*
X147872857Y-98842857D01*
X147587142Y-98842857D01*
X147415714Y-98900000D01*
X147301428Y-99014285D01*
X147244285Y-99128571D01*
X147187142Y-99357142D01*
X147187142Y-99528571D01*
X147244285Y-99757142D01*
X147301428Y-99871428D01*
X147415714Y-99985714D01*
X147587142Y-100042857D01*
X147872857Y-100042857D01*
X146672857Y-100042857D02*
X146672857Y-98842857D01*
X146158571Y-100042857D02*
X146158571Y-99414285D01*
X146215714Y-99300000D01*
X146330000Y-99242857D01*
X146501428Y-99242857D01*
X146615714Y-99300000D01*
X146672857Y-99357142D01*
X145072857Y-100042857D02*
X145072857Y-99414285D01*
X145130000Y-99300000D01*
X145244285Y-99242857D01*
X145472857Y-99242857D01*
X145587142Y-99300000D01*
X145072857Y-99985714D02*
X145187142Y-100042857D01*
X145472857Y-100042857D01*
X145587142Y-99985714D01*
X145644285Y-99871428D01*
X145644285Y-99757142D01*
X145587142Y-99642857D01*
X145472857Y-99585714D01*
X145187142Y-99585714D01*
X145072857Y-99528571D01*
X144501428Y-100042857D02*
X144501428Y-99242857D01*
X144501428Y-99471428D02*
X144444285Y-99357142D01*
X144387142Y-99300000D01*
X144272857Y-99242857D01*
X144158571Y-99242857D01*
X160187142Y-102142857D02*
X160187142Y-100942857D01*
X159672857Y-102142857D02*
X159672857Y-101514285D01*
X159730000Y-101400000D01*
X159844285Y-101342857D01*
X160015714Y-101342857D01*
X160130000Y-101400000D01*
X160187142Y-101457142D01*
X159272857Y-101342857D02*
X158815714Y-101342857D01*
X159101428Y-100942857D02*
X159101428Y-101971428D01*
X159044285Y-102085714D01*
X158930000Y-102142857D01*
X158815714Y-102142857D01*
X158587142Y-101342857D02*
X158130000Y-101342857D01*
X158415714Y-100942857D02*
X158415714Y-101971428D01*
X158358571Y-102085714D01*
X158244285Y-102142857D01*
X158130000Y-102142857D01*
X157730000Y-101342857D02*
X157730000Y-102542857D01*
X157730000Y-101400000D02*
X157615714Y-101342857D01*
X157387142Y-101342857D01*
X157272857Y-101400000D01*
X157215714Y-101457142D01*
X157158571Y-101571428D01*
X157158571Y-101914285D01*
X157215714Y-102028571D01*
X157272857Y-102085714D01*
X157387142Y-102142857D01*
X157615714Y-102142857D01*
X157730000Y-102085714D01*
X156644285Y-102028571D02*
X156587142Y-102085714D01*
X156644285Y-102142857D01*
X156701428Y-102085714D01*
X156644285Y-102028571D01*
X156644285Y-102142857D01*
X156644285Y-101400000D02*
X156587142Y-101457142D01*
X156644285Y-101514285D01*
X156701428Y-101457142D01*
X156644285Y-101400000D01*
X156644285Y-101514285D01*
X155215714Y-100885714D02*
X156244285Y-102428571D01*
X153958571Y-100885714D02*
X154987142Y-102428571D01*
X153672857Y-101342857D02*
X153444285Y-102142857D01*
X153215714Y-101571428D01*
X152987142Y-102142857D01*
X152758571Y-101342857D01*
X152301428Y-102142857D02*
X152301428Y-100942857D01*
X151787142Y-102142857D02*
X151787142Y-101514285D01*
X151844285Y-101400000D01*
X151958571Y-101342857D01*
X152130000Y-101342857D01*
X152244285Y-101400000D01*
X152301428Y-101457142D01*
X150701428Y-102142857D02*
X150701428Y-101514285D01*
X150758571Y-101400000D01*
X150872857Y-101342857D01*
X151101428Y-101342857D01*
X151215714Y-101400000D01*
X150701428Y-102085714D02*
X150815714Y-102142857D01*
X151101428Y-102142857D01*
X151215714Y-102085714D01*
X151272857Y-101971428D01*
X151272857Y-101857142D01*
X151215714Y-101742857D01*
X151101428Y-101685714D01*
X150815714Y-101685714D01*
X150701428Y-101628571D01*
X150301428Y-101342857D02*
X149844285Y-101342857D01*
X150130000Y-100942857D02*
X150130000Y-101971428D01*
X150072857Y-102085714D01*
X149958571Y-102142857D01*
X149844285Y-102142857D01*
X149444285Y-101342857D02*
X149444285Y-102142857D01*
X149444285Y-101457142D02*
X149387142Y-101400000D01*
X149272857Y-101342857D01*
X149101428Y-101342857D01*
X148987142Y-101400000D01*
X148930000Y-101514285D01*
X148930000Y-102142857D01*
X148358571Y-102142857D02*
X148358571Y-101342857D01*
X148358571Y-100942857D02*
X148415714Y-101000000D01*
X148358571Y-101057142D01*
X148301428Y-101000000D01*
X148358571Y-100942857D01*
X148358571Y-101057142D01*
X147272857Y-102085714D02*
X147387142Y-102142857D01*
X147615714Y-102142857D01*
X147730000Y-102085714D01*
X147787142Y-102028571D01*
X147844285Y-101914285D01*
X147844285Y-101571428D01*
X147787142Y-101457142D01*
X147730000Y-101400000D01*
X147615714Y-101342857D01*
X147387142Y-101342857D01*
X147272857Y-101400000D01*
X146758571Y-102142857D02*
X146758571Y-100942857D01*
X146644285Y-101685714D02*
X146301428Y-102142857D01*
X146301428Y-101342857D02*
X146758571Y-101800000D01*
X145787142Y-102028571D02*
X145730000Y-102085714D01*
X145787142Y-102142857D01*
X145844285Y-102085714D01*
X145787142Y-102028571D01*
X145787142Y-102142857D01*
X144701428Y-102085714D02*
X144815714Y-102142857D01*
X145044285Y-102142857D01*
X145158571Y-102085714D01*
X145215714Y-102028571D01*
X145272857Y-101914285D01*
X145272857Y-101571428D01*
X145215714Y-101457142D01*
X145158571Y-101400000D01*
X145044285Y-101342857D01*
X144815714Y-101342857D01*
X144701428Y-101400000D01*
X144015714Y-102142857D02*
X144130000Y-102085714D01*
X144187142Y-102028571D01*
X144244285Y-101914285D01*
X144244285Y-101571428D01*
X144187142Y-101457142D01*
X144130000Y-101400000D01*
X144015714Y-101342857D01*
X143844285Y-101342857D01*
X143730000Y-101400000D01*
X143672857Y-101457142D01*
X143615714Y-101571428D01*
X143615714Y-101914285D01*
X143672857Y-102028571D01*
X143730000Y-102085714D01*
X143844285Y-102142857D01*
X144015714Y-102142857D01*
X143101428Y-102142857D02*
X143101428Y-101342857D01*
X143101428Y-101457142D02*
X143044285Y-101400000D01*
X142930000Y-101342857D01*
X142758571Y-101342857D01*
X142644285Y-101400000D01*
X142587142Y-101514285D01*
X142587142Y-102142857D01*
X142587142Y-101514285D02*
X142530000Y-101400000D01*
X142415714Y-101342857D01*
X142244285Y-101342857D01*
X142130000Y-101400000D01*
X142072857Y-101514285D01*
X142072857Y-102142857D01*
X159130000Y-103442857D02*
X158844285Y-104242857D01*
X158558571Y-103442857D01*
X157872857Y-103042857D02*
X157758571Y-103042857D01*
X157644285Y-103100000D01*
X157587142Y-103157142D01*
X157530000Y-103271428D01*
X157472857Y-103500000D01*
X157472857Y-103785714D01*
X157530000Y-104014285D01*
X157587142Y-104128571D01*
X157644285Y-104185714D01*
X157758571Y-104242857D01*
X157872857Y-104242857D01*
X157987142Y-104185714D01*
X158044285Y-104128571D01*
X158101428Y-104014285D01*
X158158571Y-103785714D01*
X158158571Y-103500000D01*
X158101428Y-103271428D01*
X158044285Y-103157142D01*
X157987142Y-103100000D01*
X157872857Y-103042857D01*
X156958571Y-104128571D02*
X156901428Y-104185714D01*
X156958571Y-104242857D01*
X157015714Y-104185714D01*
X156958571Y-104128571D01*
X156958571Y-104242857D01*
X155758571Y-104242857D02*
X156444285Y-104242857D01*
X156101428Y-104242857D02*
X156101428Y-103042857D01*
X156215714Y-103214285D01*
X156330000Y-103328571D01*
X156444285Y-103385714D01*
X154387142Y-103157142D02*
X154330000Y-103100000D01*
X154215714Y-103042857D01*
X153930000Y-103042857D01*
X153815714Y-103100000D01*
X153758571Y-103157142D01*
X153701428Y-103271428D01*
X153701428Y-103385714D01*
X153758571Y-103557142D01*
X154444285Y-104242857D01*
X153701428Y-104242857D01*
X153244285Y-103157142D02*
X153187142Y-103100000D01*
X153072857Y-103042857D01*
X152787142Y-103042857D01*
X152672857Y-103100000D01*
X152615714Y-103157142D01*
X152558571Y-103271428D01*
X152558571Y-103385714D01*
X152615714Y-103557142D01*
X153301428Y-104242857D01*
X152558571Y-104242857D01*
X151187142Y-102985714D02*
X152215714Y-104528571D01*
X150158571Y-104242857D02*
X150844285Y-104242857D01*
X150501428Y-104242857D02*
X150501428Y-103042857D01*
X150615714Y-103214285D01*
X150730000Y-103328571D01*
X150844285Y-103385714D01*
X149701428Y-103157142D02*
X149644285Y-103100000D01*
X149530000Y-103042857D01*
X149244285Y-103042857D01*
X149130000Y-103100000D01*
X149072857Y-103157142D01*
X149015714Y-103271428D01*
X149015714Y-103385714D01*
X149072857Y-103557142D01*
X149758571Y-104242857D01*
X149015714Y-104242857D01*
X147644285Y-102985714D02*
X148672857Y-104528571D01*
X147301428Y-103157142D02*
X147244285Y-103100000D01*
X147130000Y-103042857D01*
X146844285Y-103042857D01*
X146730000Y-103100000D01*
X146672857Y-103157142D01*
X146615714Y-103271428D01*
X146615714Y-103385714D01*
X146672857Y-103557142D01*
X147358571Y-104242857D01*
X146615714Y-104242857D01*
X145872857Y-103042857D02*
X145758571Y-103042857D01*
X145644285Y-103100000D01*
X145587142Y-103157142D01*
X145530000Y-103271428D01*
X145472857Y-103500000D01*
X145472857Y-103785714D01*
X145530000Y-104014285D01*
X145587142Y-104128571D01*
X145644285Y-104185714D01*
X145758571Y-104242857D01*
X145872857Y-104242857D01*
X145987142Y-104185714D01*
X146044285Y-104128571D01*
X146101428Y-104014285D01*
X146158571Y-103785714D01*
X146158571Y-103500000D01*
X146101428Y-103271428D01*
X146044285Y-103157142D01*
X145987142Y-103100000D01*
X145872857Y-103042857D01*
X144330000Y-104242857D02*
X145015714Y-104242857D01*
X144672857Y-104242857D02*
X144672857Y-103042857D01*
X144787142Y-103214285D01*
X144901428Y-103328571D01*
X145015714Y-103385714D01*
X143644285Y-103557142D02*
X143758571Y-103500000D01*
X143815714Y-103442857D01*
X143872857Y-103328571D01*
X143872857Y-103271428D01*
X143815714Y-103157142D01*
X143758571Y-103100000D01*
X143644285Y-103042857D01*
X143415714Y-103042857D01*
X143301428Y-103100000D01*
X143244285Y-103157142D01*
X143187142Y-103271428D01*
X143187142Y-103328571D01*
X143244285Y-103442857D01*
X143301428Y-103500000D01*
X143415714Y-103557142D01*
X143644285Y-103557142D01*
X143758571Y-103614285D01*
X143815714Y-103671428D01*
X143872857Y-103785714D01*
X143872857Y-104014285D01*
X143815714Y-104128571D01*
X143758571Y-104185714D01*
X143644285Y-104242857D01*
X143415714Y-104242857D01*
X143301428Y-104185714D01*
X143244285Y-104128571D01*
X143187142Y-104014285D01*
X143187142Y-103785714D01*
X143244285Y-103671428D01*
X143301428Y-103614285D01*
X143415714Y-103557142D01*
D11*
X162160000Y-118770476D02*
X162121904Y-118694285D01*
X162121904Y-118580000D01*
X162160000Y-118465714D01*
X162236190Y-118389523D01*
X162312380Y-118351428D01*
X162464761Y-118313333D01*
X162579047Y-118313333D01*
X162731428Y-118351428D01*
X162807619Y-118389523D01*
X162883809Y-118465714D01*
X162921904Y-118580000D01*
X162921904Y-118656190D01*
X162883809Y-118770476D01*
X162845714Y-118808571D01*
X162579047Y-118808571D01*
X162579047Y-118656190D01*
X162921904Y-119151428D02*
X162121904Y-119151428D01*
X162921904Y-119608571D01*
X162121904Y-119608571D01*
X162921904Y-119989523D02*
X162121904Y-119989523D01*
X162121904Y-120180000D01*
X162160000Y-120294285D01*
X162236190Y-120370476D01*
X162312380Y-120408571D01*
X162464761Y-120446666D01*
X162579047Y-120446666D01*
X162731428Y-120408571D01*
X162807619Y-120370476D01*
X162883809Y-120294285D01*
X162921904Y-120180000D01*
X162921904Y-119989523D01*
X160381904Y-118960952D02*
X159581904Y-118960952D01*
X160381904Y-119341904D02*
X159581904Y-119341904D01*
X160381904Y-119799047D01*
X159581904Y-119799047D01*
X157841904Y-118980000D02*
X157041904Y-118980000D01*
X157841904Y-119360952D02*
X157041904Y-119360952D01*
X157041904Y-119665714D01*
X157080000Y-119741904D01*
X157118095Y-119780000D01*
X157194285Y-119818095D01*
X157308571Y-119818095D01*
X157384761Y-119780000D01*
X157422857Y-119741904D01*
X157460952Y-119665714D01*
X157460952Y-119360952D01*
X155301904Y-119246666D02*
X154920952Y-118980000D01*
X155301904Y-118789523D02*
X154501904Y-118789523D01*
X154501904Y-119094285D01*
X154540000Y-119170476D01*
X154578095Y-119208571D01*
X154654285Y-119246666D01*
X154768571Y-119246666D01*
X154844761Y-119208571D01*
X154882857Y-119170476D01*
X154920952Y-119094285D01*
X154920952Y-118789523D01*
X154501904Y-119513333D02*
X155301904Y-120046666D01*
X154501904Y-120046666D02*
X155301904Y-119513333D01*
X151961904Y-118770476D02*
X151961904Y-119227619D01*
X152761904Y-118999047D02*
X151961904Y-118999047D01*
X151961904Y-119418095D02*
X152761904Y-119951428D01*
X151961904Y-119951428D02*
X152761904Y-119418095D01*
X150221904Y-118751428D02*
X149421904Y-118751428D01*
X149421904Y-118941904D01*
X149460000Y-119056190D01*
X149536190Y-119132380D01*
X149612380Y-119170476D01*
X149764761Y-119208571D01*
X149879047Y-119208571D01*
X150031428Y-119170476D01*
X150107619Y-119132380D01*
X150183809Y-119056190D01*
X150221904Y-118941904D01*
X150221904Y-118751428D01*
X149421904Y-119703809D02*
X149421904Y-119856190D01*
X149460000Y-119932380D01*
X149536190Y-120008571D01*
X149688571Y-120046666D01*
X149955238Y-120046666D01*
X150107619Y-120008571D01*
X150183809Y-119932380D01*
X150221904Y-119856190D01*
X150221904Y-119703809D01*
X150183809Y-119627619D01*
X150107619Y-119551428D01*
X149955238Y-119513333D01*
X149688571Y-119513333D01*
X149536190Y-119551428D01*
X149460000Y-119627619D01*
X149421904Y-119703809D01*
X146484000Y-117724976D02*
X146484000Y-118370476D01*
X147681904Y-118218095D02*
X147300952Y-117951428D01*
X147681904Y-117760952D02*
X146881904Y-117760952D01*
X146881904Y-118065714D01*
X146920000Y-118141904D01*
X146958095Y-118180000D01*
X147034285Y-118218095D01*
X147148571Y-118218095D01*
X147224761Y-118180000D01*
X147262857Y-118141904D01*
X147300952Y-118065714D01*
X147300952Y-117760952D01*
X146484000Y-118370476D02*
X146484000Y-119094285D01*
X147262857Y-118560952D02*
X147262857Y-118827619D01*
X147681904Y-118941904D02*
X147681904Y-118560952D01*
X146881904Y-118560952D01*
X146881904Y-118941904D01*
X146484000Y-119094285D02*
X146484000Y-119856190D01*
X147643809Y-119246666D02*
X147681904Y-119360952D01*
X147681904Y-119551428D01*
X147643809Y-119627619D01*
X147605714Y-119665714D01*
X147529523Y-119703809D01*
X147453333Y-119703809D01*
X147377142Y-119665714D01*
X147339047Y-119627619D01*
X147300952Y-119551428D01*
X147262857Y-119399047D01*
X147224761Y-119322857D01*
X147186666Y-119284761D01*
X147110476Y-119246666D01*
X147034285Y-119246666D01*
X146958095Y-119284761D01*
X146920000Y-119322857D01*
X146881904Y-119399047D01*
X146881904Y-119589523D01*
X146920000Y-119703809D01*
X146484000Y-119856190D02*
X146484000Y-120580000D01*
X147262857Y-120046666D02*
X147262857Y-120313333D01*
X147681904Y-120427619D02*
X147681904Y-120046666D01*
X146881904Y-120046666D01*
X146881904Y-120427619D01*
X146484000Y-120580000D02*
X146484000Y-121189523D01*
X146881904Y-120656190D02*
X146881904Y-121113333D01*
X147681904Y-120884761D02*
X146881904Y-120884761D01*
X144341904Y-118694285D02*
X145141904Y-118960952D01*
X144341904Y-119227619D01*
X145141904Y-119494285D02*
X144341904Y-119494285D01*
X145141904Y-119951428D01*
X144341904Y-119951428D01*
X141801904Y-118713333D02*
X142601904Y-118980000D01*
X141801904Y-119246666D01*
X142601904Y-119513333D02*
X141801904Y-119513333D01*
X141801904Y-119818095D01*
X141840000Y-119894285D01*
X141878095Y-119932380D01*
X141954285Y-119970476D01*
X142068571Y-119970476D01*
X142144761Y-119932380D01*
X142182857Y-119894285D01*
X142220952Y-119818095D01*
X142220952Y-119513333D01*
X139261904Y-118389523D02*
X139261904Y-118884761D01*
X139566666Y-118618095D01*
X139566666Y-118732380D01*
X139604761Y-118808571D01*
X139642857Y-118846666D01*
X139719047Y-118884761D01*
X139909523Y-118884761D01*
X139985714Y-118846666D01*
X140023809Y-118808571D01*
X140061904Y-118732380D01*
X140061904Y-118503809D01*
X140023809Y-118427619D01*
X139985714Y-118389523D01*
X139261904Y-119113333D02*
X140061904Y-119380000D01*
X139261904Y-119646666D01*
X139261904Y-119837142D02*
X139261904Y-120332380D01*
X139566666Y-120065714D01*
X139566666Y-120180000D01*
X139604761Y-120256190D01*
X139642857Y-120294285D01*
X139719047Y-120332380D01*
X139909523Y-120332380D01*
X139985714Y-120294285D01*
X140023809Y-120256190D01*
X140061904Y-120180000D01*
X140061904Y-119951428D01*
X140023809Y-119875238D01*
X139985714Y-119837142D01*
D12*
G36*
X153530256Y-111139918D02*
X153474799Y-111167568D01*
X153425852Y-111218480D01*
X153412371Y-111237338D01*
X153397686Y-111262015D01*
X153388158Y-111288816D01*
X153382707Y-111324587D01*
X153380253Y-111376169D01*
X153379714Y-111444267D01*
X153382148Y-111537588D01*
X153390606Y-111607657D01*
X153406826Y-111659931D01*
X153432546Y-111699869D01*
X153469503Y-111732929D01*
X153472218Y-111734886D01*
X153508640Y-111754908D01*
X153552498Y-111764815D01*
X153608276Y-111767257D01*
X153698952Y-111767257D01*
X153698990Y-111855283D01*
X153699834Y-111904308D01*
X153704976Y-111933065D01*
X153718413Y-111950311D01*
X153744142Y-111964808D01*
X153750321Y-111967769D01*
X153779236Y-111981648D01*
X153801624Y-111990414D01*
X153818271Y-111991171D01*
X153829964Y-111981023D01*
X153837490Y-111957073D01*
X153841634Y-111916426D01*
X153843185Y-111856186D01*
X153842929Y-111773455D01*
X153841651Y-111665339D01*
X153841252Y-111633000D01*
X153839815Y-111521524D01*
X153838528Y-111448603D01*
X153699029Y-111448603D01*
X153698245Y-111510499D01*
X153694760Y-111550997D01*
X153686876Y-111577708D01*
X153672895Y-111598244D01*
X153663403Y-111608260D01*
X153624596Y-111637567D01*
X153590237Y-111639952D01*
X153554784Y-111615750D01*
X153553886Y-111614857D01*
X153539461Y-111596153D01*
X153530687Y-111570732D01*
X153526261Y-111531584D01*
X153524882Y-111471697D01*
X153524857Y-111458430D01*
X153528188Y-111375901D01*
X153539031Y-111318691D01*
X153558660Y-111283766D01*
X153588350Y-111268094D01*
X153605509Y-111266514D01*
X153646234Y-111273926D01*
X153674168Y-111298330D01*
X153690983Y-111342980D01*
X153698350Y-111411130D01*
X153699029Y-111448603D01*
X153838528Y-111448603D01*
X153838292Y-111435245D01*
X153836323Y-111370333D01*
X153833550Y-111322958D01*
X153829612Y-111289290D01*
X153824151Y-111265498D01*
X153816808Y-111247753D01*
X153807223Y-111232224D01*
X153803113Y-111226381D01*
X153748595Y-111171185D01*
X153679664Y-111139890D01*
X153599928Y-111131165D01*
X153530256Y-111139918D01*
X153530256Y-111139918D01*
G37*
X153530256Y-111139918D02*
X153474799Y-111167568D01*
X153425852Y-111218480D01*
X153412371Y-111237338D01*
X153397686Y-111262015D01*
X153388158Y-111288816D01*
X153382707Y-111324587D01*
X153380253Y-111376169D01*
X153379714Y-111444267D01*
X153382148Y-111537588D01*
X153390606Y-111607657D01*
X153406826Y-111659931D01*
X153432546Y-111699869D01*
X153469503Y-111732929D01*
X153472218Y-111734886D01*
X153508640Y-111754908D01*
X153552498Y-111764815D01*
X153608276Y-111767257D01*
X153698952Y-111767257D01*
X153698990Y-111855283D01*
X153699834Y-111904308D01*
X153704976Y-111933065D01*
X153718413Y-111950311D01*
X153744142Y-111964808D01*
X153750321Y-111967769D01*
X153779236Y-111981648D01*
X153801624Y-111990414D01*
X153818271Y-111991171D01*
X153829964Y-111981023D01*
X153837490Y-111957073D01*
X153841634Y-111916426D01*
X153843185Y-111856186D01*
X153842929Y-111773455D01*
X153841651Y-111665339D01*
X153841252Y-111633000D01*
X153839815Y-111521524D01*
X153838528Y-111448603D01*
X153699029Y-111448603D01*
X153698245Y-111510499D01*
X153694760Y-111550997D01*
X153686876Y-111577708D01*
X153672895Y-111598244D01*
X153663403Y-111608260D01*
X153624596Y-111637567D01*
X153590237Y-111639952D01*
X153554784Y-111615750D01*
X153553886Y-111614857D01*
X153539461Y-111596153D01*
X153530687Y-111570732D01*
X153526261Y-111531584D01*
X153524882Y-111471697D01*
X153524857Y-111458430D01*
X153528188Y-111375901D01*
X153539031Y-111318691D01*
X153558660Y-111283766D01*
X153588350Y-111268094D01*
X153605509Y-111266514D01*
X153646234Y-111273926D01*
X153674168Y-111298330D01*
X153690983Y-111342980D01*
X153698350Y-111411130D01*
X153699029Y-111448603D01*
X153838528Y-111448603D01*
X153838292Y-111435245D01*
X153836323Y-111370333D01*
X153833550Y-111322958D01*
X153829612Y-111289290D01*
X153824151Y-111265498D01*
X153816808Y-111247753D01*
X153807223Y-111232224D01*
X153803113Y-111226381D01*
X153748595Y-111171185D01*
X153679664Y-111139890D01*
X153599928Y-111131165D01*
X153530256Y-111139918D01*
G36*
X152413907Y-111147780D02*
X152367328Y-111174723D01*
X152334943Y-111201466D01*
X152311258Y-111229484D01*
X152294941Y-111263748D01*
X152284661Y-111309227D01*
X152279086Y-111370892D01*
X152276884Y-111453711D01*
X152276629Y-111513246D01*
X152276629Y-111732391D01*
X152338314Y-111760044D01*
X152400000Y-111787697D01*
X152407257Y-111547670D01*
X152410256Y-111458028D01*
X152413402Y-111392962D01*
X152417299Y-111348026D01*
X152422553Y-111318770D01*
X152429769Y-111300748D01*
X152439550Y-111289511D01*
X152442688Y-111287079D01*
X152490239Y-111268083D01*
X152538303Y-111275600D01*
X152566914Y-111295543D01*
X152578553Y-111309675D01*
X152586609Y-111328220D01*
X152591729Y-111356334D01*
X152594559Y-111399173D01*
X152595744Y-111461895D01*
X152595943Y-111527261D01*
X152595982Y-111609268D01*
X152597386Y-111667316D01*
X152602086Y-111706465D01*
X152612013Y-111731780D01*
X152629097Y-111748323D01*
X152655268Y-111761156D01*
X152690225Y-111774491D01*
X152728404Y-111789007D01*
X152723859Y-111531389D01*
X152722029Y-111438519D01*
X152719888Y-111369889D01*
X152716819Y-111320711D01*
X152712206Y-111286198D01*
X152705432Y-111261562D01*
X152695881Y-111242016D01*
X152684366Y-111224770D01*
X152628810Y-111169680D01*
X152561020Y-111137822D01*
X152487287Y-111130191D01*
X152413907Y-111147780D01*
X152413907Y-111147780D01*
G37*
X152413907Y-111147780D02*
X152367328Y-111174723D01*
X152334943Y-111201466D01*
X152311258Y-111229484D01*
X152294941Y-111263748D01*
X152284661Y-111309227D01*
X152279086Y-111370892D01*
X152276884Y-111453711D01*
X152276629Y-111513246D01*
X152276629Y-111732391D01*
X152338314Y-111760044D01*
X152400000Y-111787697D01*
X152407257Y-111547670D01*
X152410256Y-111458028D01*
X152413402Y-111392962D01*
X152417299Y-111348026D01*
X152422553Y-111318770D01*
X152429769Y-111300748D01*
X152439550Y-111289511D01*
X152442688Y-111287079D01*
X152490239Y-111268083D01*
X152538303Y-111275600D01*
X152566914Y-111295543D01*
X152578553Y-111309675D01*
X152586609Y-111328220D01*
X152591729Y-111356334D01*
X152594559Y-111399173D01*
X152595744Y-111461895D01*
X152595943Y-111527261D01*
X152595982Y-111609268D01*
X152597386Y-111667316D01*
X152602086Y-111706465D01*
X152612013Y-111731780D01*
X152629097Y-111748323D01*
X152655268Y-111761156D01*
X152690225Y-111774491D01*
X152728404Y-111789007D01*
X152723859Y-111531389D01*
X152722029Y-111438519D01*
X152719888Y-111369889D01*
X152716819Y-111320711D01*
X152712206Y-111286198D01*
X152705432Y-111261562D01*
X152695881Y-111242016D01*
X152684366Y-111224770D01*
X152628810Y-111169680D01*
X152561020Y-111137822D01*
X152487287Y-111130191D01*
X152413907Y-111147780D01*
G36*
X154088885Y-111141962D02*
X154020855Y-111177733D01*
X153970649Y-111235301D01*
X153952815Y-111272312D01*
X153938937Y-111327882D01*
X153931833Y-111398096D01*
X153931160Y-111474727D01*
X153936573Y-111549552D01*
X153947730Y-111614342D01*
X153964286Y-111660873D01*
X153969374Y-111668887D01*
X154029645Y-111728707D01*
X154101231Y-111764535D01*
X154178908Y-111775020D01*
X154257452Y-111758810D01*
X154279311Y-111749092D01*
X154321878Y-111719143D01*
X154359237Y-111679433D01*
X154362768Y-111674397D01*
X154377119Y-111650124D01*
X154386606Y-111624178D01*
X154392210Y-111590022D01*
X154394914Y-111541119D01*
X154395701Y-111470935D01*
X154395714Y-111455200D01*
X154395678Y-111450192D01*
X154250571Y-111450192D01*
X154249727Y-111516430D01*
X154246404Y-111560386D01*
X154239417Y-111588779D01*
X154227584Y-111608325D01*
X154221543Y-111614857D01*
X154186814Y-111639680D01*
X154153097Y-111638548D01*
X154119005Y-111617016D01*
X154098671Y-111594029D01*
X154086629Y-111560478D01*
X154079866Y-111507569D01*
X154079402Y-111501399D01*
X154078248Y-111405513D01*
X154090312Y-111334299D01*
X154115430Y-111288194D01*
X154153440Y-111267635D01*
X154167008Y-111266514D01*
X154202636Y-111272152D01*
X154227006Y-111291686D01*
X154241907Y-111329042D01*
X154249125Y-111388150D01*
X154250571Y-111450192D01*
X154395678Y-111450192D01*
X154395174Y-111380413D01*
X154392904Y-111328159D01*
X154387932Y-111291949D01*
X154379287Y-111265299D01*
X154365995Y-111241722D01*
X154363057Y-111237338D01*
X154313687Y-111178249D01*
X154259891Y-111143947D01*
X154194398Y-111130331D01*
X154172158Y-111129665D01*
X154088885Y-111141962D01*
X154088885Y-111141962D01*
G37*
X154088885Y-111141962D02*
X154020855Y-111177733D01*
X153970649Y-111235301D01*
X153952815Y-111272312D01*
X153938937Y-111327882D01*
X153931833Y-111398096D01*
X153931160Y-111474727D01*
X153936573Y-111549552D01*
X153947730Y-111614342D01*
X153964286Y-111660873D01*
X153969374Y-111668887D01*
X154029645Y-111728707D01*
X154101231Y-111764535D01*
X154178908Y-111775020D01*
X154257452Y-111758810D01*
X154279311Y-111749092D01*
X154321878Y-111719143D01*
X154359237Y-111679433D01*
X154362768Y-111674397D01*
X154377119Y-111650124D01*
X154386606Y-111624178D01*
X154392210Y-111590022D01*
X154394914Y-111541119D01*
X154395701Y-111470935D01*
X154395714Y-111455200D01*
X154395678Y-111450192D01*
X154250571Y-111450192D01*
X154249727Y-111516430D01*
X154246404Y-111560386D01*
X154239417Y-111588779D01*
X154227584Y-111608325D01*
X154221543Y-111614857D01*
X154186814Y-111639680D01*
X154153097Y-111638548D01*
X154119005Y-111617016D01*
X154098671Y-111594029D01*
X154086629Y-111560478D01*
X154079866Y-111507569D01*
X154079402Y-111501399D01*
X154078248Y-111405513D01*
X154090312Y-111334299D01*
X154115430Y-111288194D01*
X154153440Y-111267635D01*
X154167008Y-111266514D01*
X154202636Y-111272152D01*
X154227006Y-111291686D01*
X154241907Y-111329042D01*
X154249125Y-111388150D01*
X154250571Y-111450192D01*
X154395678Y-111450192D01*
X154395174Y-111380413D01*
X154392904Y-111328159D01*
X154387932Y-111291949D01*
X154379287Y-111265299D01*
X154365995Y-111241722D01*
X154363057Y-111237338D01*
X154313687Y-111178249D01*
X154259891Y-111143947D01*
X154194398Y-111130331D01*
X154172158Y-111129665D01*
X154088885Y-111141962D01*
G36*
X152961697Y-111151239D02*
X152904473Y-111189735D01*
X152860251Y-111245335D01*
X152833833Y-111316086D01*
X152828490Y-111368162D01*
X152829097Y-111389893D01*
X152834178Y-111406531D01*
X152848145Y-111421437D01*
X152875411Y-111437973D01*
X152920388Y-111459498D01*
X152987489Y-111489374D01*
X152987829Y-111489524D01*
X153049593Y-111517813D01*
X153100241Y-111542933D01*
X153134596Y-111562179D01*
X153147482Y-111572848D01*
X153147486Y-111572934D01*
X153136128Y-111596166D01*
X153109569Y-111621774D01*
X153079077Y-111640221D01*
X153063630Y-111643886D01*
X153021485Y-111631212D01*
X152985192Y-111599471D01*
X152967483Y-111564572D01*
X152950448Y-111538845D01*
X152917078Y-111509546D01*
X152877851Y-111484235D01*
X152843244Y-111470471D01*
X152836007Y-111469714D01*
X152827861Y-111482160D01*
X152827370Y-111513972D01*
X152833357Y-111556866D01*
X152844643Y-111602558D01*
X152860050Y-111642761D01*
X152860829Y-111644322D01*
X152907196Y-111709062D01*
X152967289Y-111753097D01*
X153035535Y-111774711D01*
X153106362Y-111772185D01*
X153174196Y-111743804D01*
X153177212Y-111741808D01*
X153230573Y-111693448D01*
X153265660Y-111630352D01*
X153285078Y-111547387D01*
X153287684Y-111524078D01*
X153292299Y-111414055D01*
X153286767Y-111362748D01*
X153147486Y-111362748D01*
X153145676Y-111394753D01*
X153135778Y-111404093D01*
X153111102Y-111397105D01*
X153072205Y-111380587D01*
X153028725Y-111359881D01*
X153027644Y-111359333D01*
X152990791Y-111339949D01*
X152976000Y-111327013D01*
X152979647Y-111313451D01*
X152995005Y-111295632D01*
X153034077Y-111269845D01*
X153076154Y-111267950D01*
X153113897Y-111286717D01*
X153139966Y-111322915D01*
X153147486Y-111362748D01*
X153286767Y-111362748D01*
X153282806Y-111326027D01*
X153258450Y-111256212D01*
X153224544Y-111207302D01*
X153163347Y-111157878D01*
X153095937Y-111133359D01*
X153027120Y-111131797D01*
X152961697Y-111151239D01*
X152961697Y-111151239D01*
G37*
X152961697Y-111151239D02*
X152904473Y-111189735D01*
X152860251Y-111245335D01*
X152833833Y-111316086D01*
X152828490Y-111368162D01*
X152829097Y-111389893D01*
X152834178Y-111406531D01*
X152848145Y-111421437D01*
X152875411Y-111437973D01*
X152920388Y-111459498D01*
X152987489Y-111489374D01*
X152987829Y-111489524D01*
X153049593Y-111517813D01*
X153100241Y-111542933D01*
X153134596Y-111562179D01*
X153147482Y-111572848D01*
X153147486Y-111572934D01*
X153136128Y-111596166D01*
X153109569Y-111621774D01*
X153079077Y-111640221D01*
X153063630Y-111643886D01*
X153021485Y-111631212D01*
X152985192Y-111599471D01*
X152967483Y-111564572D01*
X152950448Y-111538845D01*
X152917078Y-111509546D01*
X152877851Y-111484235D01*
X152843244Y-111470471D01*
X152836007Y-111469714D01*
X152827861Y-111482160D01*
X152827370Y-111513972D01*
X152833357Y-111556866D01*
X152844643Y-111602558D01*
X152860050Y-111642761D01*
X152860829Y-111644322D01*
X152907196Y-111709062D01*
X152967289Y-111753097D01*
X153035535Y-111774711D01*
X153106362Y-111772185D01*
X153174196Y-111743804D01*
X153177212Y-111741808D01*
X153230573Y-111693448D01*
X153265660Y-111630352D01*
X153285078Y-111547387D01*
X153287684Y-111524078D01*
X153292299Y-111414055D01*
X153286767Y-111362748D01*
X153147486Y-111362748D01*
X153145676Y-111394753D01*
X153135778Y-111404093D01*
X153111102Y-111397105D01*
X153072205Y-111380587D01*
X153028725Y-111359881D01*
X153027644Y-111359333D01*
X152990791Y-111339949D01*
X152976000Y-111327013D01*
X152979647Y-111313451D01*
X152995005Y-111295632D01*
X153034077Y-111269845D01*
X153076154Y-111267950D01*
X153113897Y-111286717D01*
X153139966Y-111322915D01*
X153147486Y-111362748D01*
X153286767Y-111362748D01*
X153282806Y-111326027D01*
X153258450Y-111256212D01*
X153224544Y-111207302D01*
X153163347Y-111157878D01*
X153095937Y-111133359D01*
X153027120Y-111131797D01*
X152961697Y-111151239D01*
G36*
X151754114Y-111071289D02*
X151749861Y-111130613D01*
X151744975Y-111165572D01*
X151738205Y-111180820D01*
X151728298Y-111181015D01*
X151725086Y-111179195D01*
X151682356Y-111166015D01*
X151626773Y-111166785D01*
X151570263Y-111180333D01*
X151534918Y-111197861D01*
X151498679Y-111225861D01*
X151472187Y-111257549D01*
X151454001Y-111297813D01*
X151442678Y-111351543D01*
X151436778Y-111423626D01*
X151434857Y-111518951D01*
X151434823Y-111537237D01*
X151434800Y-111742646D01*
X151480509Y-111758580D01*
X151512973Y-111769420D01*
X151530785Y-111774468D01*
X151531309Y-111774514D01*
X151533063Y-111760828D01*
X151534556Y-111723076D01*
X151535674Y-111666224D01*
X151536303Y-111595234D01*
X151536400Y-111552073D01*
X151536602Y-111466973D01*
X151537642Y-111405981D01*
X151540169Y-111364177D01*
X151544836Y-111336642D01*
X151552293Y-111318456D01*
X151563189Y-111304698D01*
X151569993Y-111298073D01*
X151616728Y-111271375D01*
X151667728Y-111269375D01*
X151713999Y-111291955D01*
X151722556Y-111300107D01*
X151735107Y-111315436D01*
X151743812Y-111333618D01*
X151749369Y-111359909D01*
X151752474Y-111399562D01*
X151753824Y-111457832D01*
X151754114Y-111538173D01*
X151754114Y-111742646D01*
X151799823Y-111758580D01*
X151832287Y-111769420D01*
X151850099Y-111774468D01*
X151850623Y-111774514D01*
X151851963Y-111760623D01*
X151853172Y-111721439D01*
X151854199Y-111660700D01*
X151854998Y-111582141D01*
X151855519Y-111489498D01*
X151855714Y-111386509D01*
X151855714Y-110989342D01*
X151808543Y-110969444D01*
X151761371Y-110949547D01*
X151754114Y-111071289D01*
X151754114Y-111071289D01*
G37*
X151754114Y-111071289D02*
X151749861Y-111130613D01*
X151744975Y-111165572D01*
X151738205Y-111180820D01*
X151728298Y-111181015D01*
X151725086Y-111179195D01*
X151682356Y-111166015D01*
X151626773Y-111166785D01*
X151570263Y-111180333D01*
X151534918Y-111197861D01*
X151498679Y-111225861D01*
X151472187Y-111257549D01*
X151454001Y-111297813D01*
X151442678Y-111351543D01*
X151436778Y-111423626D01*
X151434857Y-111518951D01*
X151434823Y-111537237D01*
X151434800Y-111742646D01*
X151480509Y-111758580D01*
X151512973Y-111769420D01*
X151530785Y-111774468D01*
X151531309Y-111774514D01*
X151533063Y-111760828D01*
X151534556Y-111723076D01*
X151535674Y-111666224D01*
X151536303Y-111595234D01*
X151536400Y-111552073D01*
X151536602Y-111466973D01*
X151537642Y-111405981D01*
X151540169Y-111364177D01*
X151544836Y-111336642D01*
X151552293Y-111318456D01*
X151563189Y-111304698D01*
X151569993Y-111298073D01*
X151616728Y-111271375D01*
X151667728Y-111269375D01*
X151713999Y-111291955D01*
X151722556Y-111300107D01*
X151735107Y-111315436D01*
X151743812Y-111333618D01*
X151749369Y-111359909D01*
X151752474Y-111399562D01*
X151753824Y-111457832D01*
X151754114Y-111538173D01*
X151754114Y-111742646D01*
X151799823Y-111758580D01*
X151832287Y-111769420D01*
X151850099Y-111774468D01*
X151850623Y-111774514D01*
X151851963Y-111760623D01*
X151853172Y-111721439D01*
X151854199Y-111660700D01*
X151854998Y-111582141D01*
X151855519Y-111489498D01*
X151855714Y-111386509D01*
X151855714Y-110989342D01*
X151808543Y-110969444D01*
X151761371Y-110949547D01*
X151754114Y-111071289D01*
G36*
X151090256Y-111170968D02*
X151033384Y-111192087D01*
X151032733Y-111192493D01*
X150997560Y-111218380D01*
X150971593Y-111248633D01*
X150953330Y-111288058D01*
X150941268Y-111341462D01*
X150933904Y-111413651D01*
X150929736Y-111509432D01*
X150929371Y-111523078D01*
X150924124Y-111728842D01*
X150968284Y-111751678D01*
X151000237Y-111767110D01*
X151019530Y-111774423D01*
X151020422Y-111774514D01*
X151023761Y-111761022D01*
X151026413Y-111724626D01*
X151028044Y-111671452D01*
X151028400Y-111628393D01*
X151028408Y-111558641D01*
X151031597Y-111514837D01*
X151042712Y-111493944D01*
X151066499Y-111492925D01*
X151107704Y-111508741D01*
X151169914Y-111537815D01*
X151215659Y-111561963D01*
X151239187Y-111582913D01*
X151246104Y-111605747D01*
X151246114Y-111606877D01*
X151234701Y-111646212D01*
X151200908Y-111667462D01*
X151149191Y-111670539D01*
X151111939Y-111670006D01*
X151092297Y-111680735D01*
X151080048Y-111706505D01*
X151072998Y-111739337D01*
X151083158Y-111757966D01*
X151086983Y-111760632D01*
X151122999Y-111771340D01*
X151173434Y-111772856D01*
X151225374Y-111765759D01*
X151262178Y-111752788D01*
X151313062Y-111709585D01*
X151341986Y-111649446D01*
X151347714Y-111602462D01*
X151343343Y-111560082D01*
X151327525Y-111525488D01*
X151296203Y-111494763D01*
X151245322Y-111463990D01*
X151170824Y-111429252D01*
X151166286Y-111427288D01*
X151099179Y-111396287D01*
X151057768Y-111370862D01*
X151040019Y-111348014D01*
X151043893Y-111324745D01*
X151067357Y-111298056D01*
X151074373Y-111291914D01*
X151121370Y-111268100D01*
X151170067Y-111269103D01*
X151212478Y-111292451D01*
X151240616Y-111335675D01*
X151243231Y-111344160D01*
X151268692Y-111385308D01*
X151300999Y-111405128D01*
X151347714Y-111424770D01*
X151347714Y-111373950D01*
X151333504Y-111300082D01*
X151291325Y-111232327D01*
X151269376Y-111209661D01*
X151219483Y-111180569D01*
X151156033Y-111167400D01*
X151090256Y-111170968D01*
X151090256Y-111170968D01*
G37*
X151090256Y-111170968D02*
X151033384Y-111192087D01*
X151032733Y-111192493D01*
X150997560Y-111218380D01*
X150971593Y-111248633D01*
X150953330Y-111288058D01*
X150941268Y-111341462D01*
X150933904Y-111413651D01*
X150929736Y-111509432D01*
X150929371Y-111523078D01*
X150924124Y-111728842D01*
X150968284Y-111751678D01*
X151000237Y-111767110D01*
X151019530Y-111774423D01*
X151020422Y-111774514D01*
X151023761Y-111761022D01*
X151026413Y-111724626D01*
X151028044Y-111671452D01*
X151028400Y-111628393D01*
X151028408Y-111558641D01*
X151031597Y-111514837D01*
X151042712Y-111493944D01*
X151066499Y-111492925D01*
X151107704Y-111508741D01*
X151169914Y-111537815D01*
X151215659Y-111561963D01*
X151239187Y-111582913D01*
X151246104Y-111605747D01*
X151246114Y-111606877D01*
X151234701Y-111646212D01*
X151200908Y-111667462D01*
X151149191Y-111670539D01*
X151111939Y-111670006D01*
X151092297Y-111680735D01*
X151080048Y-111706505D01*
X151072998Y-111739337D01*
X151083158Y-111757966D01*
X151086983Y-111760632D01*
X151122999Y-111771340D01*
X151173434Y-111772856D01*
X151225374Y-111765759D01*
X151262178Y-111752788D01*
X151313062Y-111709585D01*
X151341986Y-111649446D01*
X151347714Y-111602462D01*
X151343343Y-111560082D01*
X151327525Y-111525488D01*
X151296203Y-111494763D01*
X151245322Y-111463990D01*
X151170824Y-111429252D01*
X151166286Y-111427288D01*
X151099179Y-111396287D01*
X151057768Y-111370862D01*
X151040019Y-111348014D01*
X151043893Y-111324745D01*
X151067357Y-111298056D01*
X151074373Y-111291914D01*
X151121370Y-111268100D01*
X151170067Y-111269103D01*
X151212478Y-111292451D01*
X151240616Y-111335675D01*
X151243231Y-111344160D01*
X151268692Y-111385308D01*
X151300999Y-111405128D01*
X151347714Y-111424770D01*
X151347714Y-111373950D01*
X151333504Y-111300082D01*
X151291325Y-111232327D01*
X151269376Y-111209661D01*
X151219483Y-111180569D01*
X151156033Y-111167400D01*
X151090256Y-111170968D01*
G36*
X150600074Y-111169755D02*
X150534142Y-111194084D01*
X150480727Y-111237117D01*
X150459836Y-111267409D01*
X150437061Y-111322994D01*
X150437534Y-111363186D01*
X150461438Y-111390217D01*
X150470283Y-111394813D01*
X150508470Y-111409144D01*
X150527972Y-111405472D01*
X150534578Y-111381407D01*
X150534914Y-111368114D01*
X150547008Y-111319210D01*
X150578529Y-111284999D01*
X150622341Y-111268476D01*
X150671305Y-111272634D01*
X150711106Y-111294227D01*
X150724550Y-111306544D01*
X150734079Y-111321487D01*
X150740515Y-111344075D01*
X150744683Y-111379328D01*
X150747403Y-111432266D01*
X150749498Y-111507907D01*
X150750040Y-111531857D01*
X150752019Y-111613790D01*
X150754269Y-111671455D01*
X150757643Y-111709608D01*
X150762994Y-111733004D01*
X150771176Y-111746398D01*
X150783041Y-111754545D01*
X150790638Y-111758144D01*
X150822898Y-111770452D01*
X150841889Y-111774514D01*
X150848164Y-111760948D01*
X150851994Y-111719934D01*
X150853400Y-111650999D01*
X150852402Y-111553669D01*
X150852092Y-111538657D01*
X150849899Y-111449859D01*
X150847307Y-111385019D01*
X150843618Y-111339067D01*
X150838136Y-111306935D01*
X150830165Y-111283553D01*
X150819007Y-111263852D01*
X150813170Y-111255410D01*
X150779704Y-111218057D01*
X150742273Y-111189003D01*
X150737691Y-111186467D01*
X150670574Y-111166443D01*
X150600074Y-111169755D01*
X150600074Y-111169755D01*
G37*
X150600074Y-111169755D02*
X150534142Y-111194084D01*
X150480727Y-111237117D01*
X150459836Y-111267409D01*
X150437061Y-111322994D01*
X150437534Y-111363186D01*
X150461438Y-111390217D01*
X150470283Y-111394813D01*
X150508470Y-111409144D01*
X150527972Y-111405472D01*
X150534578Y-111381407D01*
X150534914Y-111368114D01*
X150547008Y-111319210D01*
X150578529Y-111284999D01*
X150622341Y-111268476D01*
X150671305Y-111272634D01*
X150711106Y-111294227D01*
X150724550Y-111306544D01*
X150734079Y-111321487D01*
X150740515Y-111344075D01*
X150744683Y-111379328D01*
X150747403Y-111432266D01*
X150749498Y-111507907D01*
X150750040Y-111531857D01*
X150752019Y-111613790D01*
X150754269Y-111671455D01*
X150757643Y-111709608D01*
X150762994Y-111733004D01*
X150771176Y-111746398D01*
X150783041Y-111754545D01*
X150790638Y-111758144D01*
X150822898Y-111770452D01*
X150841889Y-111774514D01*
X150848164Y-111760948D01*
X150851994Y-111719934D01*
X150853400Y-111650999D01*
X150852402Y-111553669D01*
X150852092Y-111538657D01*
X150849899Y-111449859D01*
X150847307Y-111385019D01*
X150843618Y-111339067D01*
X150838136Y-111306935D01*
X150830165Y-111283553D01*
X150819007Y-111263852D01*
X150813170Y-111255410D01*
X150779704Y-111218057D01*
X150742273Y-111189003D01*
X150737691Y-111186467D01*
X150670574Y-111166443D01*
X150600074Y-111169755D01*
G36*
X149939883Y-111285358D02*
X149940067Y-111393837D01*
X149940781Y-111477287D01*
X149942325Y-111539704D01*
X149944999Y-111585085D01*
X149949106Y-111617429D01*
X149954945Y-111640733D01*
X149962818Y-111658995D01*
X149968779Y-111669418D01*
X150018145Y-111725945D01*
X150080736Y-111761377D01*
X150149987Y-111774090D01*
X150219332Y-111762463D01*
X150260625Y-111741568D01*
X150303975Y-111705422D01*
X150333519Y-111661276D01*
X150351345Y-111603462D01*
X150359537Y-111526313D01*
X150360698Y-111469714D01*
X150360542Y-111465647D01*
X150259143Y-111465647D01*
X150258524Y-111530550D01*
X150255686Y-111573514D01*
X150249160Y-111601622D01*
X150237477Y-111621953D01*
X150223517Y-111637288D01*
X150176635Y-111666890D01*
X150126299Y-111669419D01*
X150078724Y-111644705D01*
X150075021Y-111641356D01*
X150059217Y-111623935D01*
X150049307Y-111603209D01*
X150043942Y-111572362D01*
X150041772Y-111524577D01*
X150041429Y-111471748D01*
X150042173Y-111405381D01*
X150045252Y-111361106D01*
X150051939Y-111332009D01*
X150063504Y-111311173D01*
X150072987Y-111300107D01*
X150117040Y-111272198D01*
X150167776Y-111268843D01*
X150216204Y-111290159D01*
X150225550Y-111298073D01*
X150241460Y-111315647D01*
X150251390Y-111336587D01*
X150256722Y-111367782D01*
X150258837Y-111416122D01*
X150259143Y-111465647D01*
X150360542Y-111465647D01*
X150357190Y-111378568D01*
X150345274Y-111310086D01*
X150322865Y-111258600D01*
X150287876Y-111218443D01*
X150260625Y-111197861D01*
X150211093Y-111175625D01*
X150153684Y-111165304D01*
X150100318Y-111168067D01*
X150070457Y-111179212D01*
X150058739Y-111182383D01*
X150050963Y-111170557D01*
X150045535Y-111138866D01*
X150041429Y-111090593D01*
X150036933Y-111036829D01*
X150030687Y-111004482D01*
X150019324Y-110985985D01*
X149999472Y-110973770D01*
X149987000Y-110968362D01*
X149939829Y-110948601D01*
X149939883Y-111285358D01*
X149939883Y-111285358D01*
G37*
X149939883Y-111285358D02*
X149940067Y-111393837D01*
X149940781Y-111477287D01*
X149942325Y-111539704D01*
X149944999Y-111585085D01*
X149949106Y-111617429D01*
X149954945Y-111640733D01*
X149962818Y-111658995D01*
X149968779Y-111669418D01*
X150018145Y-111725945D01*
X150080736Y-111761377D01*
X150149987Y-111774090D01*
X150219332Y-111762463D01*
X150260625Y-111741568D01*
X150303975Y-111705422D01*
X150333519Y-111661276D01*
X150351345Y-111603462D01*
X150359537Y-111526313D01*
X150360698Y-111469714D01*
X150360542Y-111465647D01*
X150259143Y-111465647D01*
X150258524Y-111530550D01*
X150255686Y-111573514D01*
X150249160Y-111601622D01*
X150237477Y-111621953D01*
X150223517Y-111637288D01*
X150176635Y-111666890D01*
X150126299Y-111669419D01*
X150078724Y-111644705D01*
X150075021Y-111641356D01*
X150059217Y-111623935D01*
X150049307Y-111603209D01*
X150043942Y-111572362D01*
X150041772Y-111524577D01*
X150041429Y-111471748D01*
X150042173Y-111405381D01*
X150045252Y-111361106D01*
X150051939Y-111332009D01*
X150063504Y-111311173D01*
X150072987Y-111300107D01*
X150117040Y-111272198D01*
X150167776Y-111268843D01*
X150216204Y-111290159D01*
X150225550Y-111298073D01*
X150241460Y-111315647D01*
X150251390Y-111336587D01*
X150256722Y-111367782D01*
X150258837Y-111416122D01*
X150259143Y-111465647D01*
X150360542Y-111465647D01*
X150357190Y-111378568D01*
X150345274Y-111310086D01*
X150322865Y-111258600D01*
X150287876Y-111218443D01*
X150260625Y-111197861D01*
X150211093Y-111175625D01*
X150153684Y-111165304D01*
X150100318Y-111168067D01*
X150070457Y-111179212D01*
X150058739Y-111182383D01*
X150050963Y-111170557D01*
X150045535Y-111138866D01*
X150041429Y-111090593D01*
X150036933Y-111036829D01*
X150030687Y-111004482D01*
X150019324Y-110985985D01*
X149999472Y-110973770D01*
X149987000Y-110968362D01*
X149939829Y-110948601D01*
X149939883Y-111285358D01*
G36*
X149350167Y-111178663D02*
X149347952Y-111216850D01*
X149346216Y-111274886D01*
X149345101Y-111348180D01*
X149344743Y-111425055D01*
X149344743Y-111685196D01*
X149390674Y-111731127D01*
X149422325Y-111759429D01*
X149450110Y-111770893D01*
X149488085Y-111770168D01*
X149503160Y-111768321D01*
X149550274Y-111762948D01*
X149589244Y-111759869D01*
X149598743Y-111759585D01*
X149630767Y-111761445D01*
X149676568Y-111766114D01*
X149694326Y-111768321D01*
X149737943Y-111771735D01*
X149767255Y-111764320D01*
X149796320Y-111741427D01*
X149806812Y-111731127D01*
X149852743Y-111685196D01*
X149852743Y-111198602D01*
X149815774Y-111181758D01*
X149783941Y-111169282D01*
X149765317Y-111164914D01*
X149760542Y-111178718D01*
X149756079Y-111217286D01*
X149752225Y-111276356D01*
X149749278Y-111351663D01*
X149747857Y-111415286D01*
X149743886Y-111665657D01*
X149709241Y-111670556D01*
X149677732Y-111667131D01*
X149662292Y-111656041D01*
X149657977Y-111635308D01*
X149654292Y-111591145D01*
X149651531Y-111529146D01*
X149649988Y-111454909D01*
X149649765Y-111416706D01*
X149649543Y-111196783D01*
X149603834Y-111180849D01*
X149571482Y-111170015D01*
X149553885Y-111164962D01*
X149553377Y-111164914D01*
X149551612Y-111178648D01*
X149549671Y-111216730D01*
X149547718Y-111274482D01*
X149545916Y-111347227D01*
X149544657Y-111415286D01*
X149540686Y-111665657D01*
X149453600Y-111665657D01*
X149449604Y-111437240D01*
X149445608Y-111208822D01*
X149403153Y-111186868D01*
X149371808Y-111171793D01*
X149353256Y-111164951D01*
X149352721Y-111164914D01*
X149350167Y-111178663D01*
X149350167Y-111178663D01*
G37*
X149350167Y-111178663D02*
X149347952Y-111216850D01*
X149346216Y-111274886D01*
X149345101Y-111348180D01*
X149344743Y-111425055D01*
X149344743Y-111685196D01*
X149390674Y-111731127D01*
X149422325Y-111759429D01*
X149450110Y-111770893D01*
X149488085Y-111770168D01*
X149503160Y-111768321D01*
X149550274Y-111762948D01*
X149589244Y-111759869D01*
X149598743Y-111759585D01*
X149630767Y-111761445D01*
X149676568Y-111766114D01*
X149694326Y-111768321D01*
X149737943Y-111771735D01*
X149767255Y-111764320D01*
X149796320Y-111741427D01*
X149806812Y-111731127D01*
X149852743Y-111685196D01*
X149852743Y-111198602D01*
X149815774Y-111181758D01*
X149783941Y-111169282D01*
X149765317Y-111164914D01*
X149760542Y-111178718D01*
X149756079Y-111217286D01*
X149752225Y-111276356D01*
X149749278Y-111351663D01*
X149747857Y-111415286D01*
X149743886Y-111665657D01*
X149709241Y-111670556D01*
X149677732Y-111667131D01*
X149662292Y-111656041D01*
X149657977Y-111635308D01*
X149654292Y-111591145D01*
X149651531Y-111529146D01*
X149649988Y-111454909D01*
X149649765Y-111416706D01*
X149649543Y-111196783D01*
X149603834Y-111180849D01*
X149571482Y-111170015D01*
X149553885Y-111164962D01*
X149553377Y-111164914D01*
X149551612Y-111178648D01*
X149549671Y-111216730D01*
X149547718Y-111274482D01*
X149545916Y-111347227D01*
X149544657Y-111415286D01*
X149540686Y-111665657D01*
X149453600Y-111665657D01*
X149449604Y-111437240D01*
X149445608Y-111208822D01*
X149403153Y-111186868D01*
X149371808Y-111171793D01*
X149353256Y-111164951D01*
X149352721Y-111164914D01*
X149350167Y-111178663D01*
G36*
X148985124Y-111176335D02*
X148943333Y-111195344D01*
X148910531Y-111218378D01*
X148886497Y-111244133D01*
X148869903Y-111277358D01*
X148859423Y-111322800D01*
X148853729Y-111385207D01*
X148851493Y-111469327D01*
X148851257Y-111524721D01*
X148851257Y-111740826D01*
X148888226Y-111757670D01*
X148917344Y-111769981D01*
X148931769Y-111774514D01*
X148934528Y-111761025D01*
X148936718Y-111724653D01*
X148938058Y-111671542D01*
X148938343Y-111629372D01*
X148939566Y-111568447D01*
X148942864Y-111520115D01*
X148947679Y-111490518D01*
X148951504Y-111484229D01*
X148977217Y-111490652D01*
X149017582Y-111507125D01*
X149064321Y-111529458D01*
X149109155Y-111553457D01*
X149143807Y-111574930D01*
X149159998Y-111589685D01*
X149160062Y-111589845D01*
X149158670Y-111617152D01*
X149146182Y-111643219D01*
X149124257Y-111664392D01*
X149092257Y-111671474D01*
X149064908Y-111670649D01*
X149026174Y-111670042D01*
X149005842Y-111679116D01*
X148993631Y-111703092D01*
X148992091Y-111707613D01*
X148986797Y-111741806D01*
X149000953Y-111762568D01*
X149037852Y-111772462D01*
X149077711Y-111774292D01*
X149149438Y-111760727D01*
X149186568Y-111741355D01*
X149232424Y-111695845D01*
X149256744Y-111639983D01*
X149258927Y-111580957D01*
X149238371Y-111525953D01*
X149207451Y-111491486D01*
X149176580Y-111472189D01*
X149128058Y-111447759D01*
X149071515Y-111422985D01*
X149062090Y-111419199D01*
X148999981Y-111391791D01*
X148964178Y-111367634D01*
X148952663Y-111343619D01*
X148963420Y-111316635D01*
X148981886Y-111295543D01*
X149025531Y-111269572D01*
X149073554Y-111267624D01*
X149117594Y-111287637D01*
X149149291Y-111327551D01*
X149153451Y-111337848D01*
X149177673Y-111375724D01*
X149213035Y-111403842D01*
X149257657Y-111426917D01*
X149257657Y-111361485D01*
X149255031Y-111321506D01*
X149243770Y-111289997D01*
X149218801Y-111256378D01*
X149194831Y-111230484D01*
X149157559Y-111193817D01*
X149128599Y-111174121D01*
X149097495Y-111166220D01*
X149062287Y-111164914D01*
X148985124Y-111176335D01*
X148985124Y-111176335D01*
G37*
X148985124Y-111176335D02*
X148943333Y-111195344D01*
X148910531Y-111218378D01*
X148886497Y-111244133D01*
X148869903Y-111277358D01*
X148859423Y-111322800D01*
X148853729Y-111385207D01*
X148851493Y-111469327D01*
X148851257Y-111524721D01*
X148851257Y-111740826D01*
X148888226Y-111757670D01*
X148917344Y-111769981D01*
X148931769Y-111774514D01*
X148934528Y-111761025D01*
X148936718Y-111724653D01*
X148938058Y-111671542D01*
X148938343Y-111629372D01*
X148939566Y-111568447D01*
X148942864Y-111520115D01*
X148947679Y-111490518D01*
X148951504Y-111484229D01*
X148977217Y-111490652D01*
X149017582Y-111507125D01*
X149064321Y-111529458D01*
X149109155Y-111553457D01*
X149143807Y-111574930D01*
X149159998Y-111589685D01*
X149160062Y-111589845D01*
X149158670Y-111617152D01*
X149146182Y-111643219D01*
X149124257Y-111664392D01*
X149092257Y-111671474D01*
X149064908Y-111670649D01*
X149026174Y-111670042D01*
X149005842Y-111679116D01*
X148993631Y-111703092D01*
X148992091Y-111707613D01*
X148986797Y-111741806D01*
X149000953Y-111762568D01*
X149037852Y-111772462D01*
X149077711Y-111774292D01*
X149149438Y-111760727D01*
X149186568Y-111741355D01*
X149232424Y-111695845D01*
X149256744Y-111639983D01*
X149258927Y-111580957D01*
X149238371Y-111525953D01*
X149207451Y-111491486D01*
X149176580Y-111472189D01*
X149128058Y-111447759D01*
X149071515Y-111422985D01*
X149062090Y-111419199D01*
X148999981Y-111391791D01*
X148964178Y-111367634D01*
X148952663Y-111343619D01*
X148963420Y-111316635D01*
X148981886Y-111295543D01*
X149025531Y-111269572D01*
X149073554Y-111267624D01*
X149117594Y-111287637D01*
X149149291Y-111327551D01*
X149153451Y-111337848D01*
X149177673Y-111375724D01*
X149213035Y-111403842D01*
X149257657Y-111426917D01*
X149257657Y-111361485D01*
X149255031Y-111321506D01*
X149243770Y-111289997D01*
X149218801Y-111256378D01*
X149194831Y-111230484D01*
X149157559Y-111193817D01*
X149128599Y-111174121D01*
X149097495Y-111166220D01*
X149062287Y-111164914D01*
X148985124Y-111176335D01*
G36*
X148477400Y-111178752D02*
X148460052Y-111186334D01*
X148418644Y-111219128D01*
X148383235Y-111266547D01*
X148361336Y-111317151D01*
X148357771Y-111342098D01*
X148369721Y-111376927D01*
X148395933Y-111395357D01*
X148424036Y-111406516D01*
X148436905Y-111408572D01*
X148443171Y-111393649D01*
X148455544Y-111361175D01*
X148460972Y-111346502D01*
X148491410Y-111295744D01*
X148535480Y-111270427D01*
X148591990Y-111271206D01*
X148596175Y-111272203D01*
X148626345Y-111286507D01*
X148648524Y-111314393D01*
X148663673Y-111359287D01*
X148672750Y-111424615D01*
X148676714Y-111513804D01*
X148677086Y-111561261D01*
X148677270Y-111636071D01*
X148678478Y-111687069D01*
X148681691Y-111719471D01*
X148687891Y-111738495D01*
X148698060Y-111749356D01*
X148713181Y-111757272D01*
X148714054Y-111757670D01*
X148743172Y-111769981D01*
X148757597Y-111774514D01*
X148759814Y-111760809D01*
X148761711Y-111722925D01*
X148763153Y-111665715D01*
X148764002Y-111594027D01*
X148764171Y-111541565D01*
X148763308Y-111440047D01*
X148759930Y-111363032D01*
X148752858Y-111306023D01*
X148740912Y-111264526D01*
X148722910Y-111234043D01*
X148697673Y-111210080D01*
X148672753Y-111193355D01*
X148612829Y-111171097D01*
X148543089Y-111166076D01*
X148477400Y-111178752D01*
X148477400Y-111178752D01*
G37*
X148477400Y-111178752D02*
X148460052Y-111186334D01*
X148418644Y-111219128D01*
X148383235Y-111266547D01*
X148361336Y-111317151D01*
X148357771Y-111342098D01*
X148369721Y-111376927D01*
X148395933Y-111395357D01*
X148424036Y-111406516D01*
X148436905Y-111408572D01*
X148443171Y-111393649D01*
X148455544Y-111361175D01*
X148460972Y-111346502D01*
X148491410Y-111295744D01*
X148535480Y-111270427D01*
X148591990Y-111271206D01*
X148596175Y-111272203D01*
X148626345Y-111286507D01*
X148648524Y-111314393D01*
X148663673Y-111359287D01*
X148672750Y-111424615D01*
X148676714Y-111513804D01*
X148677086Y-111561261D01*
X148677270Y-111636071D01*
X148678478Y-111687069D01*
X148681691Y-111719471D01*
X148687891Y-111738495D01*
X148698060Y-111749356D01*
X148713181Y-111757272D01*
X148714054Y-111757670D01*
X148743172Y-111769981D01*
X148757597Y-111774514D01*
X148759814Y-111760809D01*
X148761711Y-111722925D01*
X148763153Y-111665715D01*
X148764002Y-111594027D01*
X148764171Y-111541565D01*
X148763308Y-111440047D01*
X148759930Y-111363032D01*
X148752858Y-111306023D01*
X148740912Y-111264526D01*
X148722910Y-111234043D01*
X148697673Y-111210080D01*
X148672753Y-111193355D01*
X148612829Y-111171097D01*
X148543089Y-111166076D01*
X148477400Y-111178752D01*
G36*
X147976405Y-111186966D02*
X147918979Y-111224497D01*
X147891281Y-111258096D01*
X147869338Y-111319064D01*
X147867595Y-111367308D01*
X147871543Y-111431816D01*
X148020314Y-111496934D01*
X148092651Y-111530202D01*
X148139916Y-111556964D01*
X148164493Y-111580144D01*
X148168763Y-111602667D01*
X148155111Y-111627455D01*
X148140057Y-111643886D01*
X148096254Y-111670235D01*
X148048611Y-111672081D01*
X148004855Y-111651546D01*
X147972711Y-111610752D01*
X147966962Y-111596347D01*
X147939424Y-111551356D01*
X147907742Y-111532182D01*
X147864286Y-111515779D01*
X147864286Y-111577966D01*
X147868128Y-111620283D01*
X147883177Y-111655969D01*
X147914720Y-111696943D01*
X147919408Y-111702267D01*
X147954494Y-111738720D01*
X147984653Y-111758283D01*
X148022385Y-111767283D01*
X148053665Y-111770230D01*
X148109615Y-111770965D01*
X148149445Y-111761660D01*
X148174292Y-111747846D01*
X148213344Y-111717467D01*
X148240375Y-111684613D01*
X148257483Y-111643294D01*
X148266762Y-111587521D01*
X148270307Y-111511305D01*
X148270590Y-111472622D01*
X148269628Y-111426247D01*
X148181993Y-111426247D01*
X148180977Y-111451126D01*
X148178444Y-111455200D01*
X148161726Y-111449665D01*
X148125751Y-111435017D01*
X148077669Y-111414190D01*
X148067614Y-111409714D01*
X148006848Y-111378814D01*
X147973368Y-111351657D01*
X147966010Y-111326220D01*
X147983609Y-111300481D01*
X147998144Y-111289109D01*
X148050590Y-111266364D01*
X148099678Y-111270122D01*
X148140773Y-111297884D01*
X148169242Y-111347152D01*
X148178369Y-111386257D01*
X148181993Y-111426247D01*
X148269628Y-111426247D01*
X148268715Y-111382249D01*
X148261804Y-111315384D01*
X148248116Y-111266695D01*
X148225904Y-111230849D01*
X148193426Y-111202513D01*
X148179267Y-111193355D01*
X148114947Y-111169507D01*
X148044527Y-111168006D01*
X147976405Y-111186966D01*
X147976405Y-111186966D01*
G37*
X147976405Y-111186966D02*
X147918979Y-111224497D01*
X147891281Y-111258096D01*
X147869338Y-111319064D01*
X147867595Y-111367308D01*
X147871543Y-111431816D01*
X148020314Y-111496934D01*
X148092651Y-111530202D01*
X148139916Y-111556964D01*
X148164493Y-111580144D01*
X148168763Y-111602667D01*
X148155111Y-111627455D01*
X148140057Y-111643886D01*
X148096254Y-111670235D01*
X148048611Y-111672081D01*
X148004855Y-111651546D01*
X147972711Y-111610752D01*
X147966962Y-111596347D01*
X147939424Y-111551356D01*
X147907742Y-111532182D01*
X147864286Y-111515779D01*
X147864286Y-111577966D01*
X147868128Y-111620283D01*
X147883177Y-111655969D01*
X147914720Y-111696943D01*
X147919408Y-111702267D01*
X147954494Y-111738720D01*
X147984653Y-111758283D01*
X148022385Y-111767283D01*
X148053665Y-111770230D01*
X148109615Y-111770965D01*
X148149445Y-111761660D01*
X148174292Y-111747846D01*
X148213344Y-111717467D01*
X148240375Y-111684613D01*
X148257483Y-111643294D01*
X148266762Y-111587521D01*
X148270307Y-111511305D01*
X148270590Y-111472622D01*
X148269628Y-111426247D01*
X148181993Y-111426247D01*
X148180977Y-111451126D01*
X148178444Y-111455200D01*
X148161726Y-111449665D01*
X148125751Y-111435017D01*
X148077669Y-111414190D01*
X148067614Y-111409714D01*
X148006848Y-111378814D01*
X147973368Y-111351657D01*
X147966010Y-111326220D01*
X147983609Y-111300481D01*
X147998144Y-111289109D01*
X148050590Y-111266364D01*
X148099678Y-111270122D01*
X148140773Y-111297884D01*
X148169242Y-111347152D01*
X148178369Y-111386257D01*
X148181993Y-111426247D01*
X148269628Y-111426247D01*
X148268715Y-111382249D01*
X148261804Y-111315384D01*
X148248116Y-111266695D01*
X148225904Y-111230849D01*
X148193426Y-111202513D01*
X148179267Y-111193355D01*
X148114947Y-111169507D01*
X148044527Y-111168006D01*
X147976405Y-111186966D01*
G36*
X151026090Y-106462348D02*
X150947546Y-106462778D01*
X150890702Y-106463942D01*
X150851895Y-106466207D01*
X150827462Y-106469940D01*
X150813738Y-106475506D01*
X150807060Y-106483273D01*
X150803764Y-106493605D01*
X150803444Y-106494943D01*
X150798438Y-106519079D01*
X150789171Y-106566701D01*
X150776608Y-106632741D01*
X150761713Y-106712128D01*
X150745449Y-106799796D01*
X150744881Y-106802875D01*
X150728590Y-106888789D01*
X150713348Y-106964696D01*
X150700139Y-107026045D01*
X150689946Y-107068282D01*
X150683752Y-107086855D01*
X150683457Y-107087184D01*
X150665212Y-107096253D01*
X150627595Y-107111367D01*
X150578729Y-107129262D01*
X150578457Y-107129358D01*
X150516907Y-107152493D01*
X150444343Y-107181965D01*
X150375943Y-107211597D01*
X150372706Y-107213062D01*
X150261298Y-107263626D01*
X150014601Y-107095160D01*
X149938923Y-107043803D01*
X149870369Y-106997889D01*
X149812912Y-106960030D01*
X149770524Y-106932837D01*
X149747175Y-106918921D01*
X149744958Y-106917889D01*
X149727990Y-106922484D01*
X149696299Y-106944655D01*
X149648648Y-106985447D01*
X149583802Y-107045905D01*
X149517603Y-107110227D01*
X149453786Y-107173612D01*
X149396671Y-107231451D01*
X149349695Y-107280175D01*
X149316297Y-107316210D01*
X149299915Y-107335984D01*
X149299306Y-107337002D01*
X149297495Y-107350572D01*
X149304317Y-107372733D01*
X149321460Y-107406478D01*
X149350607Y-107454800D01*
X149393445Y-107520692D01*
X149450552Y-107605517D01*
X149501234Y-107680177D01*
X149546539Y-107747140D01*
X149583850Y-107802516D01*
X149610548Y-107842420D01*
X149624015Y-107862962D01*
X149624863Y-107864356D01*
X149623219Y-107884038D01*
X149610755Y-107922293D01*
X149589952Y-107971889D01*
X149582538Y-107987728D01*
X149550186Y-108058290D01*
X149515672Y-108138353D01*
X149487635Y-108207629D01*
X149467432Y-108259045D01*
X149451385Y-108298119D01*
X149442112Y-108318541D01*
X149440959Y-108320114D01*
X149423904Y-108322721D01*
X149383702Y-108329863D01*
X149325698Y-108340523D01*
X149255237Y-108353685D01*
X149177665Y-108368333D01*
X149098328Y-108383449D01*
X149022569Y-108398018D01*
X148955736Y-108411022D01*
X148903172Y-108421445D01*
X148870224Y-108428270D01*
X148862143Y-108430199D01*
X148853795Y-108434962D01*
X148847494Y-108445718D01*
X148842955Y-108466098D01*
X148839896Y-108499734D01*
X148838033Y-108550255D01*
X148837082Y-108621292D01*
X148836760Y-108716476D01*
X148836743Y-108755492D01*
X148836743Y-109072799D01*
X148912943Y-109087839D01*
X148955337Y-109095995D01*
X149018600Y-109107899D01*
X149095038Y-109122116D01*
X149176957Y-109137210D01*
X149199600Y-109141355D01*
X149275194Y-109156053D01*
X149341047Y-109170505D01*
X149391634Y-109183375D01*
X149421426Y-109193322D01*
X149426388Y-109196287D01*
X149438574Y-109217283D01*
X149456047Y-109257967D01*
X149475423Y-109310322D01*
X149479266Y-109321600D01*
X149504661Y-109391523D01*
X149536183Y-109470418D01*
X149567031Y-109541266D01*
X149567183Y-109541595D01*
X149618553Y-109652733D01*
X149449601Y-109901253D01*
X149280648Y-110149772D01*
X149497571Y-110367058D01*
X149563181Y-110431726D01*
X149623021Y-110488733D01*
X149673733Y-110535033D01*
X149711954Y-110567584D01*
X149734325Y-110583343D01*
X149737534Y-110584343D01*
X149756374Y-110576469D01*
X149794820Y-110554578D01*
X149848670Y-110521267D01*
X149913724Y-110479131D01*
X149984060Y-110431943D01*
X150055445Y-110383810D01*
X150119092Y-110341928D01*
X150170959Y-110308871D01*
X150207005Y-110287218D01*
X150223133Y-110279543D01*
X150242811Y-110286037D01*
X150280125Y-110303150D01*
X150327379Y-110327326D01*
X150332388Y-110330013D01*
X150396023Y-110361927D01*
X150439659Y-110377579D01*
X150466798Y-110377745D01*
X150480943Y-110363204D01*
X150481025Y-110363000D01*
X150488095Y-110345779D01*
X150504958Y-110304899D01*
X150530305Y-110243525D01*
X150562829Y-110164819D01*
X150601222Y-110071947D01*
X150644178Y-109968072D01*
X150685778Y-109867502D01*
X150731496Y-109756516D01*
X150773474Y-109653703D01*
X150810452Y-109562215D01*
X150841173Y-109485201D01*
X150864378Y-109425815D01*
X150878810Y-109387209D01*
X150883257Y-109372800D01*
X150872104Y-109356272D01*
X150842931Y-109329930D01*
X150804029Y-109300887D01*
X150693243Y-109209039D01*
X150606649Y-109103759D01*
X150545284Y-108987266D01*
X150510185Y-108861776D01*
X150502392Y-108729507D01*
X150508057Y-108668457D01*
X150538922Y-108541795D01*
X150592080Y-108429941D01*
X150664233Y-108334001D01*
X150752083Y-108255076D01*
X150852335Y-108194270D01*
X150961690Y-108152687D01*
X151076853Y-108131428D01*
X151194525Y-108131599D01*
X151311410Y-108154301D01*
X151424211Y-108200638D01*
X151529631Y-108271713D01*
X151573632Y-108311911D01*
X151658021Y-108415129D01*
X151716778Y-108527925D01*
X151750296Y-108647010D01*
X151758965Y-108769095D01*
X151743177Y-108890893D01*
X151703322Y-109009116D01*
X151639793Y-109120475D01*
X151552979Y-109221684D01*
X151455971Y-109300887D01*
X151415563Y-109331162D01*
X151387018Y-109357219D01*
X151376743Y-109372825D01*
X151382123Y-109389843D01*
X151397425Y-109430500D01*
X151421388Y-109491642D01*
X151452756Y-109570119D01*
X151490268Y-109662780D01*
X151532667Y-109766472D01*
X151574337Y-109867526D01*
X151620310Y-109978607D01*
X151662893Y-110081541D01*
X151700779Y-110173165D01*
X151732660Y-110250316D01*
X151757229Y-110309831D01*
X151773180Y-110348544D01*
X151779090Y-110363000D01*
X151793052Y-110377685D01*
X151820060Y-110377642D01*
X151863587Y-110362099D01*
X151927110Y-110330284D01*
X151927612Y-110330013D01*
X151975440Y-110305323D01*
X152014103Y-110287338D01*
X152035905Y-110279614D01*
X152036867Y-110279543D01*
X152053279Y-110287378D01*
X152089513Y-110309165D01*
X152141526Y-110342328D01*
X152205275Y-110384291D01*
X152275940Y-110431943D01*
X152347884Y-110480191D01*
X152412726Y-110522151D01*
X152466265Y-110555227D01*
X152504303Y-110576821D01*
X152522467Y-110584343D01*
X152539192Y-110574457D01*
X152572820Y-110546826D01*
X152619990Y-110504495D01*
X152677342Y-110450505D01*
X152741516Y-110387899D01*
X152762503Y-110366983D01*
X152979501Y-110149623D01*
X152814332Y-109907220D01*
X152764136Y-109832781D01*
X152720081Y-109765972D01*
X152684638Y-109710665D01*
X152660281Y-109670729D01*
X152649478Y-109650036D01*
X152649162Y-109648563D01*
X152654857Y-109629058D01*
X152670174Y-109589822D01*
X152692463Y-109537430D01*
X152708107Y-109502355D01*
X152737359Y-109435201D01*
X152764906Y-109367358D01*
X152786263Y-109310034D01*
X152792065Y-109292572D01*
X152808548Y-109245938D01*
X152824660Y-109209905D01*
X152833510Y-109196287D01*
X152853040Y-109187952D01*
X152895666Y-109176137D01*
X152955855Y-109162181D01*
X153028078Y-109147422D01*
X153060400Y-109141355D01*
X153142478Y-109126273D01*
X153221205Y-109111669D01*
X153288891Y-109098980D01*
X153337840Y-109089642D01*
X153347057Y-109087839D01*
X153423257Y-109072799D01*
X153423257Y-108755492D01*
X153423086Y-108651154D01*
X153422384Y-108572213D01*
X153420866Y-108515038D01*
X153418251Y-108475999D01*
X153414254Y-108451465D01*
X153408591Y-108437805D01*
X153400980Y-108431389D01*
X153397857Y-108430199D01*
X153379022Y-108425980D01*
X153337412Y-108417562D01*
X153278370Y-108405961D01*
X153207243Y-108392195D01*
X153129375Y-108377280D01*
X153050113Y-108362232D01*
X152974802Y-108348069D01*
X152908787Y-108335806D01*
X152857413Y-108326461D01*
X152826025Y-108321050D01*
X152819041Y-108320114D01*
X152812715Y-108307596D01*
X152798710Y-108274246D01*
X152779645Y-108226377D01*
X152772366Y-108207629D01*
X152743004Y-108135195D01*
X152708429Y-108055170D01*
X152677463Y-107987728D01*
X152654677Y-107936159D01*
X152639518Y-107893785D01*
X152634458Y-107867834D01*
X152635264Y-107864356D01*
X152645959Y-107847936D01*
X152670380Y-107811417D01*
X152705905Y-107758687D01*
X152749913Y-107693635D01*
X152799783Y-107620151D01*
X152809644Y-107605645D01*
X152867508Y-107519704D01*
X152910044Y-107454261D01*
X152938946Y-107406304D01*
X152955910Y-107372820D01*
X152962633Y-107350795D01*
X152960810Y-107337217D01*
X152960764Y-107337131D01*
X152946414Y-107319297D01*
X152914677Y-107284817D01*
X152868990Y-107237268D01*
X152812796Y-107180222D01*
X152749532Y-107117255D01*
X152742398Y-107110227D01*
X152662670Y-107033020D01*
X152601143Y-106976330D01*
X152556579Y-106939110D01*
X152527743Y-106920315D01*
X152515042Y-106917889D01*
X152496506Y-106928471D01*
X152458039Y-106952916D01*
X152403614Y-106988612D01*
X152337202Y-107032947D01*
X152262775Y-107083311D01*
X152245399Y-107095160D01*
X151998703Y-107263626D01*
X151887294Y-107213062D01*
X151819543Y-107183595D01*
X151746817Y-107153959D01*
X151684297Y-107130330D01*
X151681543Y-107129358D01*
X151632640Y-107111457D01*
X151594943Y-107096320D01*
X151576575Y-107087210D01*
X151576544Y-107087184D01*
X151570715Y-107070717D01*
X151560808Y-107030219D01*
X151547805Y-106970242D01*
X151532691Y-106895340D01*
X151516448Y-106810064D01*
X151515119Y-106802875D01*
X151498825Y-106715014D01*
X151483867Y-106635260D01*
X151471209Y-106568681D01*
X151461814Y-106520347D01*
X151456646Y-106495325D01*
X151456556Y-106494943D01*
X151453411Y-106484299D01*
X151447296Y-106476262D01*
X151434547Y-106470467D01*
X151411500Y-106466547D01*
X151374491Y-106464135D01*
X151319856Y-106462865D01*
X151243933Y-106462371D01*
X151143056Y-106462286D01*
X151130000Y-106462286D01*
X151026090Y-106462348D01*
X151026090Y-106462348D01*
G37*
X151026090Y-106462348D02*
X150947546Y-106462778D01*
X150890702Y-106463942D01*
X150851895Y-106466207D01*
X150827462Y-106469940D01*
X150813738Y-106475506D01*
X150807060Y-106483273D01*
X150803764Y-106493605D01*
X150803444Y-106494943D01*
X150798438Y-106519079D01*
X150789171Y-106566701D01*
X150776608Y-106632741D01*
X150761713Y-106712128D01*
X150745449Y-106799796D01*
X150744881Y-106802875D01*
X150728590Y-106888789D01*
X150713348Y-106964696D01*
X150700139Y-107026045D01*
X150689946Y-107068282D01*
X150683752Y-107086855D01*
X150683457Y-107087184D01*
X150665212Y-107096253D01*
X150627595Y-107111367D01*
X150578729Y-107129262D01*
X150578457Y-107129358D01*
X150516907Y-107152493D01*
X150444343Y-107181965D01*
X150375943Y-107211597D01*
X150372706Y-107213062D01*
X150261298Y-107263626D01*
X150014601Y-107095160D01*
X149938923Y-107043803D01*
X149870369Y-106997889D01*
X149812912Y-106960030D01*
X149770524Y-106932837D01*
X149747175Y-106918921D01*
X149744958Y-106917889D01*
X149727990Y-106922484D01*
X149696299Y-106944655D01*
X149648648Y-106985447D01*
X149583802Y-107045905D01*
X149517603Y-107110227D01*
X149453786Y-107173612D01*
X149396671Y-107231451D01*
X149349695Y-107280175D01*
X149316297Y-107316210D01*
X149299915Y-107335984D01*
X149299306Y-107337002D01*
X149297495Y-107350572D01*
X149304317Y-107372733D01*
X149321460Y-107406478D01*
X149350607Y-107454800D01*
X149393445Y-107520692D01*
X149450552Y-107605517D01*
X149501234Y-107680177D01*
X149546539Y-107747140D01*
X149583850Y-107802516D01*
X149610548Y-107842420D01*
X149624015Y-107862962D01*
X149624863Y-107864356D01*
X149623219Y-107884038D01*
X149610755Y-107922293D01*
X149589952Y-107971889D01*
X149582538Y-107987728D01*
X149550186Y-108058290D01*
X149515672Y-108138353D01*
X149487635Y-108207629D01*
X149467432Y-108259045D01*
X149451385Y-108298119D01*
X149442112Y-108318541D01*
X149440959Y-108320114D01*
X149423904Y-108322721D01*
X149383702Y-108329863D01*
X149325698Y-108340523D01*
X149255237Y-108353685D01*
X149177665Y-108368333D01*
X149098328Y-108383449D01*
X149022569Y-108398018D01*
X148955736Y-108411022D01*
X148903172Y-108421445D01*
X148870224Y-108428270D01*
X148862143Y-108430199D01*
X148853795Y-108434962D01*
X148847494Y-108445718D01*
X148842955Y-108466098D01*
X148839896Y-108499734D01*
X148838033Y-108550255D01*
X148837082Y-108621292D01*
X148836760Y-108716476D01*
X148836743Y-108755492D01*
X148836743Y-109072799D01*
X148912943Y-109087839D01*
X148955337Y-109095995D01*
X149018600Y-109107899D01*
X149095038Y-109122116D01*
X149176957Y-109137210D01*
X149199600Y-109141355D01*
X149275194Y-109156053D01*
X149341047Y-109170505D01*
X149391634Y-109183375D01*
X149421426Y-109193322D01*
X149426388Y-109196287D01*
X149438574Y-109217283D01*
X149456047Y-109257967D01*
X149475423Y-109310322D01*
X149479266Y-109321600D01*
X149504661Y-109391523D01*
X149536183Y-109470418D01*
X149567031Y-109541266D01*
X149567183Y-109541595D01*
X149618553Y-109652733D01*
X149449601Y-109901253D01*
X149280648Y-110149772D01*
X149497571Y-110367058D01*
X149563181Y-110431726D01*
X149623021Y-110488733D01*
X149673733Y-110535033D01*
X149711954Y-110567584D01*
X149734325Y-110583343D01*
X149737534Y-110584343D01*
X149756374Y-110576469D01*
X149794820Y-110554578D01*
X149848670Y-110521267D01*
X149913724Y-110479131D01*
X149984060Y-110431943D01*
X150055445Y-110383810D01*
X150119092Y-110341928D01*
X150170959Y-110308871D01*
X150207005Y-110287218D01*
X150223133Y-110279543D01*
X150242811Y-110286037D01*
X150280125Y-110303150D01*
X150327379Y-110327326D01*
X150332388Y-110330013D01*
X150396023Y-110361927D01*
X150439659Y-110377579D01*
X150466798Y-110377745D01*
X150480943Y-110363204D01*
X150481025Y-110363000D01*
X150488095Y-110345779D01*
X150504958Y-110304899D01*
X150530305Y-110243525D01*
X150562829Y-110164819D01*
X150601222Y-110071947D01*
X150644178Y-109968072D01*
X150685778Y-109867502D01*
X150731496Y-109756516D01*
X150773474Y-109653703D01*
X150810452Y-109562215D01*
X150841173Y-109485201D01*
X150864378Y-109425815D01*
X150878810Y-109387209D01*
X150883257Y-109372800D01*
X150872104Y-109356272D01*
X150842931Y-109329930D01*
X150804029Y-109300887D01*
X150693243Y-109209039D01*
X150606649Y-109103759D01*
X150545284Y-108987266D01*
X150510185Y-108861776D01*
X150502392Y-108729507D01*
X150508057Y-108668457D01*
X150538922Y-108541795D01*
X150592080Y-108429941D01*
X150664233Y-108334001D01*
X150752083Y-108255076D01*
X150852335Y-108194270D01*
X150961690Y-108152687D01*
X151076853Y-108131428D01*
X151194525Y-108131599D01*
X151311410Y-108154301D01*
X151424211Y-108200638D01*
X151529631Y-108271713D01*
X151573632Y-108311911D01*
X151658021Y-108415129D01*
X151716778Y-108527925D01*
X151750296Y-108647010D01*
X151758965Y-108769095D01*
X151743177Y-108890893D01*
X151703322Y-109009116D01*
X151639793Y-109120475D01*
X151552979Y-109221684D01*
X151455971Y-109300887D01*
X151415563Y-109331162D01*
X151387018Y-109357219D01*
X151376743Y-109372825D01*
X151382123Y-109389843D01*
X151397425Y-109430500D01*
X151421388Y-109491642D01*
X151452756Y-109570119D01*
X151490268Y-109662780D01*
X151532667Y-109766472D01*
X151574337Y-109867526D01*
X151620310Y-109978607D01*
X151662893Y-110081541D01*
X151700779Y-110173165D01*
X151732660Y-110250316D01*
X151757229Y-110309831D01*
X151773180Y-110348544D01*
X151779090Y-110363000D01*
X151793052Y-110377685D01*
X151820060Y-110377642D01*
X151863587Y-110362099D01*
X151927110Y-110330284D01*
X151927612Y-110330013D01*
X151975440Y-110305323D01*
X152014103Y-110287338D01*
X152035905Y-110279614D01*
X152036867Y-110279543D01*
X152053279Y-110287378D01*
X152089513Y-110309165D01*
X152141526Y-110342328D01*
X152205275Y-110384291D01*
X152275940Y-110431943D01*
X152347884Y-110480191D01*
X152412726Y-110522151D01*
X152466265Y-110555227D01*
X152504303Y-110576821D01*
X152522467Y-110584343D01*
X152539192Y-110574457D01*
X152572820Y-110546826D01*
X152619990Y-110504495D01*
X152677342Y-110450505D01*
X152741516Y-110387899D01*
X152762503Y-110366983D01*
X152979501Y-110149623D01*
X152814332Y-109907220D01*
X152764136Y-109832781D01*
X152720081Y-109765972D01*
X152684638Y-109710665D01*
X152660281Y-109670729D01*
X152649478Y-109650036D01*
X152649162Y-109648563D01*
X152654857Y-109629058D01*
X152670174Y-109589822D01*
X152692463Y-109537430D01*
X152708107Y-109502355D01*
X152737359Y-109435201D01*
X152764906Y-109367358D01*
X152786263Y-109310034D01*
X152792065Y-109292572D01*
X152808548Y-109245938D01*
X152824660Y-109209905D01*
X152833510Y-109196287D01*
X152853040Y-109187952D01*
X152895666Y-109176137D01*
X152955855Y-109162181D01*
X153028078Y-109147422D01*
X153060400Y-109141355D01*
X153142478Y-109126273D01*
X153221205Y-109111669D01*
X153288891Y-109098980D01*
X153337840Y-109089642D01*
X153347057Y-109087839D01*
X153423257Y-109072799D01*
X153423257Y-108755492D01*
X153423086Y-108651154D01*
X153422384Y-108572213D01*
X153420866Y-108515038D01*
X153418251Y-108475999D01*
X153414254Y-108451465D01*
X153408591Y-108437805D01*
X153400980Y-108431389D01*
X153397857Y-108430199D01*
X153379022Y-108425980D01*
X153337412Y-108417562D01*
X153278370Y-108405961D01*
X153207243Y-108392195D01*
X153129375Y-108377280D01*
X153050113Y-108362232D01*
X152974802Y-108348069D01*
X152908787Y-108335806D01*
X152857413Y-108326461D01*
X152826025Y-108321050D01*
X152819041Y-108320114D01*
X152812715Y-108307596D01*
X152798710Y-108274246D01*
X152779645Y-108226377D01*
X152772366Y-108207629D01*
X152743004Y-108135195D01*
X152708429Y-108055170D01*
X152677463Y-107987728D01*
X152654677Y-107936159D01*
X152639518Y-107893785D01*
X152634458Y-107867834D01*
X152635264Y-107864356D01*
X152645959Y-107847936D01*
X152670380Y-107811417D01*
X152705905Y-107758687D01*
X152749913Y-107693635D01*
X152799783Y-107620151D01*
X152809644Y-107605645D01*
X152867508Y-107519704D01*
X152910044Y-107454261D01*
X152938946Y-107406304D01*
X152955910Y-107372820D01*
X152962633Y-107350795D01*
X152960810Y-107337217D01*
X152960764Y-107337131D01*
X152946414Y-107319297D01*
X152914677Y-107284817D01*
X152868990Y-107237268D01*
X152812796Y-107180222D01*
X152749532Y-107117255D01*
X152742398Y-107110227D01*
X152662670Y-107033020D01*
X152601143Y-106976330D01*
X152556579Y-106939110D01*
X152527743Y-106920315D01*
X152515042Y-106917889D01*
X152496506Y-106928471D01*
X152458039Y-106952916D01*
X152403614Y-106988612D01*
X152337202Y-107032947D01*
X152262775Y-107083311D01*
X152245399Y-107095160D01*
X151998703Y-107263626D01*
X151887294Y-107213062D01*
X151819543Y-107183595D01*
X151746817Y-107153959D01*
X151684297Y-107130330D01*
X151681543Y-107129358D01*
X151632640Y-107111457D01*
X151594943Y-107096320D01*
X151576575Y-107087210D01*
X151576544Y-107087184D01*
X151570715Y-107070717D01*
X151560808Y-107030219D01*
X151547805Y-106970242D01*
X151532691Y-106895340D01*
X151516448Y-106810064D01*
X151515119Y-106802875D01*
X151498825Y-106715014D01*
X151483867Y-106635260D01*
X151471209Y-106568681D01*
X151461814Y-106520347D01*
X151456646Y-106495325D01*
X151456556Y-106494943D01*
X151453411Y-106484299D01*
X151447296Y-106476262D01*
X151434547Y-106470467D01*
X151411500Y-106466547D01*
X151374491Y-106464135D01*
X151319856Y-106462865D01*
X151243933Y-106462371D01*
X151143056Y-106462286D01*
X151130000Y-106462286D01*
X151026090Y-106462348D01*
D13*
X163890000Y-121860000D02*
X163890000Y-124520000D01*
X140970000Y-121860000D02*
X163890000Y-121860000D01*
X140970000Y-124520000D02*
X163890000Y-124520000D01*
X140970000Y-121860000D02*
X140970000Y-124520000D01*
X139700000Y-121860000D02*
X138370000Y-121860000D01*
X138370000Y-121860000D02*
X138370000Y-123190000D01*
M02*
