G04 #@! TF.GenerationSoftware,KiCad,Pcbnew,(2018-02-15 revision 29b28de31)-makepkg*
G04 #@! TF.CreationDate,2018-12-22T18:26:04+03:00*
G04 #@! TF.ProjectId,CS5490_Breakout,4353353439305F427265616B6F75742E,rev?*
G04 #@! TF.SameCoordinates,Original*
G04 #@! TF.FileFunction,Soldermask,Top*
G04 #@! TF.FilePolarity,Negative*
%FSLAX46Y46*%
G04 Gerber Fmt 4.6, Leading zero omitted, Abs format (unit mm)*
G04 Created by KiCad (PCBNEW (2018-02-15 revision 29b28de31)-makepkg) date 12/22/18 18:26:04*
%MOMM*%
%LPD*%
G01*
G04 APERTURE LIST*
%ADD10R,1.400000X1.070000*%
%ADD11R,1.220000X1.400000*%
%ADD12R,1.400000X1.220000*%
%ADD13R,2.400000X4.900000*%
%ADD14R,2.100000X2.100000*%
%ADD15O,2.100000X2.100000*%
%ADD16R,1.000000X1.900000*%
G04 APERTURE END LIST*
D10*
X152400000Y-100725000D03*
X152400000Y-102475000D03*
D11*
X157010000Y-115570000D03*
X155410000Y-115570000D03*
X160490000Y-115570000D03*
X162090000Y-115570000D03*
D12*
X142240000Y-114770000D03*
X142240000Y-116370000D03*
X144780000Y-114770000D03*
X144780000Y-116370000D03*
X151130000Y-114770000D03*
X151130000Y-116370000D03*
X154940000Y-102400000D03*
X154940000Y-100800000D03*
X146050000Y-100800000D03*
X146050000Y-102400000D03*
X157480000Y-107150000D03*
X157480000Y-108750000D03*
D10*
X148590000Y-116445000D03*
X148590000Y-114695000D03*
X149860000Y-100725000D03*
X149860000Y-102475000D03*
X157480000Y-120255000D03*
X157480000Y-118505000D03*
X160020000Y-120255000D03*
X160020000Y-118505000D03*
X162560000Y-120255000D03*
X162560000Y-118505000D03*
X154940000Y-118505000D03*
X154940000Y-120255000D03*
X144780000Y-120255000D03*
X144780000Y-118505000D03*
X142240000Y-118505000D03*
X142240000Y-120255000D03*
D13*
X140970000Y-102430000D03*
X140970000Y-110930000D03*
D14*
X139700000Y-123190000D03*
D15*
X142240000Y-123190000D03*
X144780000Y-123190000D03*
X147320000Y-123190000D03*
X149860000Y-123190000D03*
X152400000Y-123190000D03*
X154940000Y-123190000D03*
X157480000Y-123190000D03*
X160020000Y-123190000D03*
X162560000Y-123190000D03*
D16*
X146685000Y-110650000D03*
X147955000Y-110650000D03*
X149225000Y-110650000D03*
X150495000Y-110650000D03*
X151765000Y-110650000D03*
X153035000Y-110650000D03*
X154305000Y-110650000D03*
X155575000Y-110650000D03*
X155575000Y-105250000D03*
X154305000Y-105250000D03*
X153035000Y-105250000D03*
X151765000Y-105250000D03*
X150495000Y-105250000D03*
X149225000Y-105250000D03*
X147955000Y-105250000D03*
X146685000Y-105250000D03*
M02*
