G04 #@! TF.GenerationSoftware,KiCad,Pcbnew,(2018-02-15 revision 29b28de31)-makepkg*
G04 #@! TF.CreationDate,2018-12-22T18:26:03+03:00*
G04 #@! TF.ProjectId,CS5490_Breakout,4353353439305F427265616B6F75742E,rev?*
G04 #@! TF.SameCoordinates,Original*
G04 #@! TF.FileFunction,Copper,L1,Top,Signal*
G04 #@! TF.FilePolarity,Positive*
%FSLAX46Y46*%
G04 Gerber Fmt 4.6, Leading zero omitted, Abs format (unit mm)*
G04 Created by KiCad (PCBNEW (2018-02-15 revision 29b28de31)-makepkg) date 12/22/18 18:26:03*
%MOMM*%
%LPD*%
G01*
G04 APERTURE LIST*
%ADD10R,1.000000X0.670000*%
%ADD11R,0.820000X1.000000*%
%ADD12R,1.000000X0.820000*%
%ADD13R,2.000000X4.500000*%
%ADD14R,1.700000X1.700000*%
%ADD15O,1.700000X1.700000*%
%ADD16R,0.600000X1.500000*%
%ADD17C,0.800000*%
%ADD18C,0.250000*%
%ADD19C,0.254000*%
G04 APERTURE END LIST*
D10*
X152400000Y-100725000D03*
X152400000Y-102475000D03*
D11*
X157010000Y-115570000D03*
X155410000Y-115570000D03*
X160490000Y-115570000D03*
X162090000Y-115570000D03*
D12*
X142240000Y-114770000D03*
X142240000Y-116370000D03*
X144780000Y-114770000D03*
X144780000Y-116370000D03*
X151130000Y-114770000D03*
X151130000Y-116370000D03*
X154940000Y-102400000D03*
X154940000Y-100800000D03*
X146050000Y-100800000D03*
X146050000Y-102400000D03*
X157480000Y-107150000D03*
X157480000Y-108750000D03*
D10*
X148590000Y-116445000D03*
X148590000Y-114695000D03*
X149860000Y-100725000D03*
X149860000Y-102475000D03*
X157480000Y-120255000D03*
X157480000Y-118505000D03*
X160020000Y-120255000D03*
X160020000Y-118505000D03*
X162560000Y-120255000D03*
X162560000Y-118505000D03*
X154940000Y-118505000D03*
X154940000Y-120255000D03*
X144780000Y-120255000D03*
X144780000Y-118505000D03*
X142240000Y-118505000D03*
X142240000Y-120255000D03*
D13*
X140970000Y-102430000D03*
X140970000Y-110930000D03*
D14*
X139700000Y-123190000D03*
D15*
X142240000Y-123190000D03*
X144780000Y-123190000D03*
X147320000Y-123190000D03*
X149860000Y-123190000D03*
X152400000Y-123190000D03*
X154940000Y-123190000D03*
X157480000Y-123190000D03*
X160020000Y-123190000D03*
X162560000Y-123190000D03*
D16*
X146685000Y-110650000D03*
X147955000Y-110650000D03*
X149225000Y-110650000D03*
X150495000Y-110650000D03*
X151765000Y-110650000D03*
X153035000Y-110650000D03*
X154305000Y-110650000D03*
X155575000Y-110650000D03*
X155575000Y-105250000D03*
X154305000Y-105250000D03*
X153035000Y-105250000D03*
X151765000Y-105250000D03*
X150495000Y-105250000D03*
X149225000Y-105250000D03*
X147955000Y-105250000D03*
X146685000Y-105250000D03*
D17*
X150738800Y-112029500D03*
X143510000Y-116210000D03*
X150320200Y-108653500D03*
X146225300Y-115531700D03*
X167640000Y-119380000D03*
X167640000Y-113030000D03*
X167640000Y-106680000D03*
X167640000Y-101600000D03*
X134620000Y-101600000D03*
X134620000Y-106680000D03*
X134620000Y-113030000D03*
X134620000Y-119380000D03*
X163830000Y-97790000D03*
X157480000Y-97790000D03*
X151130000Y-97790000D03*
X144780000Y-97790000D03*
X138430000Y-97790000D03*
X152358300Y-107764400D03*
X151474500Y-106600300D03*
D18*
X143090600Y-111725300D02*
X142295300Y-110930000D01*
X146685000Y-111725300D02*
X143090600Y-111725300D01*
X146685000Y-110650000D02*
X146685000Y-111725300D01*
X140970000Y-110930000D02*
X142295300Y-110930000D01*
X147955000Y-108089700D02*
X142295300Y-102430000D01*
X147955000Y-110650000D02*
X147955000Y-108089700D01*
X140970000Y-102430000D02*
X142295300Y-102430000D01*
X142240000Y-118505000D02*
X142240000Y-116370000D01*
X143225300Y-116210000D02*
X143065300Y-116370000D01*
X143510000Y-116210000D02*
X143225300Y-116210000D01*
X142240000Y-116370000D02*
X143065300Y-116370000D01*
X153035000Y-110650000D02*
X153035000Y-109574700D01*
X151139600Y-111628700D02*
X150738800Y-112029500D01*
X151139600Y-109765300D02*
X151139600Y-111628700D01*
X151330200Y-109574700D02*
X151139600Y-109765300D01*
X153035000Y-109574700D02*
X151330200Y-109574700D01*
X144780000Y-118505000D02*
X144780000Y-116370000D01*
X144883000Y-115531700D02*
X144780000Y-115634700D01*
X146225300Y-115531700D02*
X144883000Y-115531700D01*
X144780000Y-116370000D02*
X144780000Y-115634700D01*
X154305000Y-110650000D02*
X154305000Y-109574700D01*
X153387600Y-108653500D02*
X150320200Y-108653500D01*
X154305000Y-109570900D02*
X153387600Y-108653500D01*
X154305000Y-109574700D02*
X154305000Y-109570900D01*
X155410000Y-115570000D02*
X155292500Y-115570000D01*
X155292500Y-117492200D02*
X154940000Y-117844700D01*
X155292500Y-115570000D02*
X155292500Y-117492200D01*
X154940000Y-118505000D02*
X154940000Y-117844700D01*
X151765000Y-112042500D02*
X151765000Y-110650000D01*
X155292500Y-115570000D02*
X151765000Y-112042500D01*
X162560000Y-118505000D02*
X162560000Y-117844700D01*
X162090000Y-117374700D02*
X162090000Y-115570000D01*
X162560000Y-117844700D02*
X162090000Y-117374700D01*
X150495000Y-110650000D02*
X150495000Y-109574700D01*
X162090000Y-115570000D02*
X161354700Y-115570000D01*
X150945300Y-109124400D02*
X150495000Y-109574700D01*
X153221600Y-109124400D02*
X150945300Y-109124400D01*
X153660400Y-109563200D02*
X153221600Y-109124400D01*
X153660400Y-111537300D02*
X153660400Y-109563200D01*
X156069900Y-113946800D02*
X153660400Y-111537300D01*
X160283000Y-113946800D02*
X156069900Y-113946800D01*
X161354700Y-115018500D02*
X160283000Y-113946800D01*
X161354700Y-115570000D02*
X161354700Y-115018500D01*
X154940000Y-102400000D02*
X154940000Y-101664700D01*
X154305000Y-103770300D02*
X154940000Y-103135300D01*
X154305000Y-105250000D02*
X154305000Y-103770300D01*
X154940000Y-102400000D02*
X154940000Y-103135300D01*
X154305000Y-105250000D02*
X154305000Y-106325300D01*
X160020000Y-116865300D02*
X160490000Y-116395300D01*
X160020000Y-118505000D02*
X160020000Y-116865300D01*
X162560000Y-123190000D02*
X162560000Y-122014700D01*
X163385400Y-121189300D02*
X162560000Y-122014700D01*
X163385400Y-119343400D02*
X163385400Y-121189300D01*
X163207400Y-119165400D02*
X163385400Y-119343400D01*
X160020100Y-119165400D02*
X160020000Y-119165300D01*
X163207400Y-119165400D02*
X160020100Y-119165400D01*
X160490000Y-115570000D02*
X160490000Y-115982600D01*
X160490000Y-115982600D02*
X160490000Y-116395300D01*
X158157900Y-115982600D02*
X157745300Y-115570000D01*
X160490000Y-115982600D02*
X158157900Y-115982600D01*
X157010000Y-115570000D02*
X157745300Y-115570000D01*
X155912300Y-107932600D02*
X154305000Y-106325300D01*
X158056500Y-107932600D02*
X155912300Y-107932600D01*
X163385400Y-113261500D02*
X158056500Y-107932600D01*
X163385400Y-118987400D02*
X163385400Y-113261500D01*
X163207400Y-119165400D02*
X163385400Y-118987400D01*
X155491500Y-101664700D02*
X154940000Y-101664700D01*
X155765400Y-101390800D02*
X155491500Y-101664700D01*
X155765400Y-100231500D02*
X155765400Y-101390800D01*
X155598600Y-100064700D02*
X155765400Y-100231500D01*
X146057600Y-100064700D02*
X155598600Y-100064700D01*
X146050000Y-100072300D02*
X146057600Y-100064700D01*
X160020000Y-118505000D02*
X160020000Y-118835100D01*
X160020000Y-118835100D02*
X160020000Y-119165300D01*
X158635400Y-118835100D02*
X158305300Y-118505000D01*
X160020000Y-118835100D02*
X158635400Y-118835100D01*
X157480000Y-118505000D02*
X157892700Y-118505000D01*
X157892700Y-118505000D02*
X158305300Y-118505000D01*
X153190100Y-119165400D02*
X151130000Y-117105300D01*
X157232300Y-119165400D02*
X153190100Y-119165400D01*
X157892700Y-118505000D02*
X157232300Y-119165400D01*
X151130000Y-116370000D02*
X151130000Y-117105300D01*
X142240000Y-114770000D02*
X144780000Y-114770000D01*
X146050000Y-100800000D02*
X146050000Y-100436100D01*
X146050000Y-100436100D02*
X146050000Y-100072300D01*
X141075500Y-114770000D02*
X142240000Y-114770000D01*
X139644600Y-113339100D02*
X141075500Y-114770000D01*
X139644600Y-99998400D02*
X139644600Y-113339100D01*
X139788400Y-99854600D02*
X139644600Y-99998400D01*
X145468500Y-99854600D02*
X139788400Y-99854600D01*
X146050000Y-100436100D02*
X145468500Y-99854600D01*
X149860000Y-100725000D02*
X152400000Y-100725000D01*
X153035000Y-105250000D02*
X153035000Y-104174700D01*
X152400000Y-103539700D02*
X153035000Y-104174700D01*
X152400000Y-103135300D02*
X152400000Y-103539700D01*
X152400000Y-102805100D02*
X152400000Y-103135300D01*
X154114700Y-101090400D02*
X154114700Y-100800000D01*
X152400000Y-102805100D02*
X154114700Y-101090400D01*
X154940000Y-100800000D02*
X154114700Y-100800000D01*
X147955000Y-105250000D02*
X147955000Y-105373600D01*
X152400000Y-102640000D02*
X152400000Y-102805100D01*
X146100700Y-119594600D02*
X148590000Y-117105300D01*
X141604100Y-119594600D02*
X146100700Y-119594600D01*
X139700000Y-121498700D02*
X141604100Y-119594600D01*
X139700000Y-123190000D02*
X139700000Y-121498700D01*
X148590000Y-116445000D02*
X148590000Y-117105300D01*
X146685000Y-103770300D02*
X146050000Y-103135300D01*
X146685000Y-105250000D02*
X146685000Y-103770300D01*
X146050000Y-102400000D02*
X146050000Y-103135300D01*
X152400000Y-102640000D02*
X152400000Y-102475000D01*
X147460600Y-101814700D02*
X146875300Y-102400000D01*
X152400000Y-101814700D02*
X147460600Y-101814700D01*
X152400000Y-102475000D02*
X152400000Y-101814700D01*
X146050000Y-102400000D02*
X146875300Y-102400000D01*
X147831400Y-105250000D02*
X147955000Y-105373600D01*
X146685000Y-105250000D02*
X147831400Y-105250000D01*
X148590000Y-116445000D02*
X148590000Y-115784700D01*
X148342400Y-115784700D02*
X148590000Y-115784700D01*
X147757700Y-115200000D02*
X148342400Y-115784700D01*
X147757700Y-113962700D02*
X147757700Y-115200000D01*
X148580300Y-113140100D02*
X147757700Y-113962700D01*
X148580300Y-105998900D02*
X148580300Y-113140100D01*
X147955000Y-105373600D02*
X148580300Y-105998900D01*
X155575000Y-110650000D02*
X155575000Y-109574700D01*
X157480000Y-108750000D02*
X157480000Y-109485300D01*
X157390600Y-109574700D02*
X155575000Y-109574700D01*
X157480000Y-109485300D02*
X157390600Y-109574700D01*
X157390600Y-106325300D02*
X157480000Y-106414700D01*
X155575000Y-106325300D02*
X157390600Y-106325300D01*
X155575000Y-105250000D02*
X155575000Y-106325300D01*
X157480000Y-107150000D02*
X157480000Y-106414700D01*
X151612800Y-107764400D02*
X152358300Y-107764400D01*
X150495000Y-106646600D02*
X151612800Y-107764400D01*
X150495000Y-105250000D02*
X150495000Y-106646600D01*
X149225000Y-105250000D02*
X149225000Y-106325300D01*
X154940000Y-123190000D02*
X154940000Y-122014700D01*
X150264100Y-117338800D02*
X154940000Y-122014700D01*
X150264100Y-115803600D02*
X150264100Y-117338800D01*
X150562300Y-115505400D02*
X150264100Y-115803600D01*
X151777200Y-115505400D02*
X150562300Y-115505400D01*
X151955400Y-115327200D02*
X151777200Y-115505400D01*
X151955400Y-114188900D02*
X151955400Y-115327200D01*
X151707200Y-113940700D02*
X151955400Y-114188900D01*
X151624300Y-113940700D02*
X151707200Y-113940700D01*
X149865700Y-112182100D02*
X151624300Y-113940700D01*
X149865700Y-109780600D02*
X149865700Y-112182100D01*
X149225000Y-109139900D02*
X149865700Y-109780600D01*
X149225000Y-106325300D02*
X149225000Y-109139900D01*
X142240000Y-123190000D02*
X142240000Y-120255000D01*
X144780000Y-123190000D02*
X144780000Y-120255000D01*
X157480000Y-123190000D02*
X157480000Y-120255000D01*
X154940000Y-120255000D02*
X157480000Y-120255000D01*
X162560000Y-120255000D02*
X162560000Y-120915300D01*
X160020000Y-120915300D02*
X162560000Y-120915300D01*
X160020000Y-123190000D02*
X160020000Y-120915300D01*
X160020000Y-120915300D02*
X160020000Y-120255000D01*
X149860000Y-102475000D02*
X149860000Y-103135300D01*
X150899400Y-104174700D02*
X151765000Y-104174700D01*
X149860000Y-103135300D02*
X150899400Y-104174700D01*
X151765000Y-104824900D02*
X151765000Y-104174700D01*
X151765000Y-104824900D02*
X151765000Y-105250000D01*
X151765000Y-105250000D02*
X151765000Y-106325300D01*
X151749500Y-106325300D02*
X151474500Y-106600300D01*
X151765000Y-106325300D02*
X151749500Y-106325300D01*
X148590000Y-114695000D02*
X149415300Y-114695000D01*
X151130000Y-114770000D02*
X150304700Y-114770000D01*
X149634800Y-114770000D02*
X150304700Y-114770000D01*
X149634800Y-119699900D02*
X149634800Y-114770000D01*
X147320000Y-122014700D02*
X149634800Y-119699900D01*
X147320000Y-123190000D02*
X147320000Y-122014700D01*
X149559800Y-114695000D02*
X149415300Y-114695000D01*
X149634800Y-114770000D02*
X149559800Y-114695000D01*
X149415300Y-111915600D02*
X149415300Y-114695000D01*
X149225000Y-111725300D02*
X149415300Y-111915600D01*
X149225000Y-110650000D02*
X149225000Y-111725300D01*
D19*
G36*
X164969929Y-97659929D02*
X164540719Y-98302287D01*
X164390000Y-99060000D01*
X164540719Y-99817713D01*
X164969929Y-100460071D01*
X165612287Y-100889281D01*
X166370000Y-101040000D01*
X167127713Y-100889281D01*
X167770071Y-100460071D01*
X168175000Y-99854052D01*
X168175001Y-121125949D01*
X167770071Y-120519929D01*
X167127713Y-120090719D01*
X166370000Y-119940000D01*
X165612287Y-120090719D01*
X164969929Y-120519929D01*
X164540719Y-121162287D01*
X164390000Y-121920000D01*
X164540719Y-122677713D01*
X164969929Y-123320071D01*
X165575948Y-123725000D01*
X163917842Y-123725000D01*
X164001486Y-123546892D01*
X163880819Y-123317000D01*
X162687000Y-123317000D01*
X162687000Y-123337000D01*
X162433000Y-123337000D01*
X162433000Y-123317000D01*
X162413000Y-123317000D01*
X162413000Y-123063000D01*
X162433000Y-123063000D01*
X162433000Y-121869845D01*
X162687000Y-121869845D01*
X162687000Y-123063000D01*
X163880819Y-123063000D01*
X164001486Y-122833108D01*
X163755183Y-122308642D01*
X163326924Y-121918355D01*
X162916890Y-121748524D01*
X162687000Y-121869845D01*
X162433000Y-121869845D01*
X162203110Y-121748524D01*
X161793076Y-121918355D01*
X161364817Y-122308642D01*
X161303843Y-122438478D01*
X161090625Y-122119375D01*
X160780000Y-121911822D01*
X160780000Y-121675300D01*
X162485148Y-121675300D01*
X162560000Y-121690189D01*
X162856537Y-121631204D01*
X163107929Y-121463229D01*
X163275904Y-121211837D01*
X163279496Y-121193780D01*
X163307765Y-121188157D01*
X163517809Y-121047809D01*
X163658157Y-120837765D01*
X163707440Y-120590000D01*
X163707440Y-119920000D01*
X163658157Y-119672235D01*
X163517809Y-119462191D01*
X163394802Y-119380000D01*
X163517809Y-119297809D01*
X163658157Y-119087765D01*
X163707440Y-118840000D01*
X163707440Y-118170000D01*
X163658157Y-117922235D01*
X163517809Y-117712191D01*
X163307765Y-117571843D01*
X163279496Y-117566220D01*
X163275904Y-117548163D01*
X163107929Y-117296771D01*
X163044472Y-117254371D01*
X162850000Y-117059899D01*
X162850000Y-116599845D01*
X162957809Y-116527809D01*
X163098157Y-116317765D01*
X163147440Y-116070000D01*
X163147440Y-115070000D01*
X163098157Y-114822235D01*
X162957809Y-114612191D01*
X162747765Y-114471843D01*
X162500000Y-114422560D01*
X161833562Y-114422560D01*
X160873331Y-113462330D01*
X160830929Y-113398871D01*
X160579537Y-113230896D01*
X160357852Y-113186800D01*
X160357847Y-113186800D01*
X160283000Y-113171912D01*
X160208153Y-113186800D01*
X156384702Y-113186800D01*
X155237977Y-112040076D01*
X155275000Y-112047440D01*
X155875000Y-112047440D01*
X156122765Y-111998157D01*
X156332809Y-111857809D01*
X156473157Y-111647765D01*
X156522440Y-111400000D01*
X156522440Y-110334700D01*
X157315753Y-110334700D01*
X157390600Y-110349588D01*
X157465447Y-110334700D01*
X157465452Y-110334700D01*
X157687137Y-110290604D01*
X157938529Y-110122629D01*
X157974338Y-110069038D01*
X158027929Y-110033229D01*
X158195904Y-109781837D01*
X158199496Y-109763780D01*
X158227765Y-109758157D01*
X158437809Y-109617809D01*
X158578157Y-109407765D01*
X158627440Y-109160000D01*
X158627440Y-108340000D01*
X158578157Y-108092235D01*
X158483118Y-107950000D01*
X158578157Y-107807765D01*
X158627440Y-107560000D01*
X158627440Y-106740000D01*
X158578157Y-106492235D01*
X158437809Y-106282191D01*
X158227765Y-106141843D01*
X158199496Y-106136220D01*
X158195904Y-106118163D01*
X158027929Y-105866771D01*
X157974338Y-105830962D01*
X157938529Y-105777371D01*
X157687137Y-105609396D01*
X157465452Y-105565300D01*
X157465447Y-105565300D01*
X157390600Y-105550412D01*
X157315753Y-105565300D01*
X156522440Y-105565300D01*
X156522440Y-104500000D01*
X156473157Y-104252235D01*
X156332809Y-104042191D01*
X156122765Y-103901843D01*
X155875000Y-103852560D01*
X155275000Y-103852560D01*
X155027235Y-103901843D01*
X154948028Y-103954768D01*
X154731310Y-103865000D01*
X154590750Y-103865000D01*
X154432000Y-104023750D01*
X154432000Y-105123000D01*
X154452000Y-105123000D01*
X154452000Y-105377000D01*
X154432000Y-105377000D01*
X154432000Y-106476250D01*
X154590750Y-106635000D01*
X154731310Y-106635000D01*
X154851788Y-106585096D01*
X154859096Y-106621837D01*
X155027071Y-106873229D01*
X155278463Y-107041204D01*
X155500148Y-107085300D01*
X155575000Y-107100189D01*
X155649852Y-107085300D01*
X156332560Y-107085300D01*
X156332560Y-107560000D01*
X156381843Y-107807765D01*
X156476882Y-107950000D01*
X156381843Y-108092235D01*
X156332560Y-108340000D01*
X156332560Y-108814700D01*
X155649852Y-108814700D01*
X155575000Y-108799811D01*
X155500148Y-108814700D01*
X155278463Y-108858796D01*
X155027071Y-109026771D01*
X154941270Y-109155182D01*
X154895329Y-109086427D01*
X154852929Y-109022971D01*
X154789473Y-108980571D01*
X153977931Y-108169030D01*
X153935529Y-108105571D01*
X153684137Y-107937596D01*
X153462452Y-107893500D01*
X153462447Y-107893500D01*
X153393300Y-107879746D01*
X153393300Y-107558526D01*
X153235731Y-107178120D01*
X152944580Y-106886969D01*
X152564174Y-106729400D01*
X152509500Y-106729400D01*
X152509500Y-106602586D01*
X152735000Y-106647440D01*
X153335000Y-106647440D01*
X153582765Y-106598157D01*
X153661972Y-106545232D01*
X153878690Y-106635000D01*
X154019250Y-106635000D01*
X154178000Y-106476250D01*
X154178000Y-105377000D01*
X154158000Y-105377000D01*
X154158000Y-105123000D01*
X154178000Y-105123000D01*
X154178000Y-104023750D01*
X154019250Y-103865000D01*
X153878690Y-103865000D01*
X153758212Y-103914904D01*
X153750904Y-103878163D01*
X153582929Y-103626771D01*
X153519473Y-103584371D01*
X153264954Y-103329853D01*
X153357809Y-103267809D01*
X153498157Y-103057765D01*
X153547440Y-102810000D01*
X153547440Y-102732461D01*
X153805000Y-102474902D01*
X153805000Y-102527002D01*
X153963748Y-102527002D01*
X153805000Y-102685750D01*
X153805000Y-102936309D01*
X153901673Y-103169698D01*
X154080301Y-103348327D01*
X154313690Y-103445000D01*
X154654250Y-103445000D01*
X154813000Y-103286250D01*
X154813000Y-102527000D01*
X155067000Y-102527000D01*
X155067000Y-103286250D01*
X155225750Y-103445000D01*
X155566310Y-103445000D01*
X155799699Y-103348327D01*
X155978327Y-103169698D01*
X156075000Y-102936309D01*
X156075000Y-102685750D01*
X155916250Y-102527000D01*
X155067000Y-102527000D01*
X154813000Y-102527000D01*
X154793000Y-102527000D01*
X154793000Y-102273000D01*
X154813000Y-102273000D01*
X154813000Y-102253000D01*
X155067000Y-102253000D01*
X155067000Y-102273000D01*
X155916250Y-102273000D01*
X156075000Y-102114250D01*
X156075000Y-101863691D01*
X155978327Y-101630302D01*
X155945083Y-101597058D01*
X156038157Y-101457765D01*
X156087440Y-101210000D01*
X156087440Y-100390000D01*
X156038157Y-100142235D01*
X155897809Y-99932191D01*
X155687765Y-99791843D01*
X155440000Y-99742560D01*
X154440000Y-99742560D01*
X154192235Y-99791843D01*
X153982191Y-99932191D01*
X153890275Y-100069752D01*
X153818163Y-100084096D01*
X153566771Y-100252071D01*
X153530733Y-100306006D01*
X153498157Y-100142235D01*
X153357809Y-99932191D01*
X153147765Y-99791843D01*
X152900000Y-99742560D01*
X151900000Y-99742560D01*
X151652235Y-99791843D01*
X151442191Y-99932191D01*
X151420269Y-99965000D01*
X150839731Y-99965000D01*
X150817809Y-99932191D01*
X150607765Y-99791843D01*
X150360000Y-99742560D01*
X149360000Y-99742560D01*
X149112235Y-99791843D01*
X148902191Y-99932191D01*
X148761843Y-100142235D01*
X148712560Y-100390000D01*
X148712560Y-101054700D01*
X147535446Y-101054700D01*
X147460599Y-101039812D01*
X147385752Y-101054700D01*
X147385748Y-101054700D01*
X147185000Y-101094631D01*
X147185000Y-101085750D01*
X147026250Y-100927000D01*
X146177000Y-100927000D01*
X146177000Y-100947000D01*
X145923000Y-100947000D01*
X145923000Y-100927000D01*
X145073750Y-100927000D01*
X144915000Y-101085750D01*
X144915000Y-101336309D01*
X145011673Y-101569698D01*
X145044917Y-101602942D01*
X144951843Y-101742235D01*
X144902560Y-101990000D01*
X144902560Y-102810000D01*
X144951843Y-103057765D01*
X145092191Y-103267809D01*
X145302235Y-103408157D01*
X145330505Y-103413780D01*
X145334097Y-103431837D01*
X145456183Y-103614551D01*
X145502072Y-103683229D01*
X145565528Y-103725629D01*
X145909126Y-104069227D01*
X145786843Y-104252235D01*
X145737560Y-104500000D01*
X145737560Y-104797458D01*
X142885631Y-101945530D01*
X142843229Y-101882071D01*
X142617440Y-101731203D01*
X142617440Y-100263691D01*
X144915000Y-100263691D01*
X144915000Y-100514250D01*
X145073750Y-100673000D01*
X145923000Y-100673000D01*
X145923000Y-99913750D01*
X146177000Y-99913750D01*
X146177000Y-100673000D01*
X147026250Y-100673000D01*
X147185000Y-100514250D01*
X147185000Y-100263691D01*
X147088327Y-100030302D01*
X146909699Y-99851673D01*
X146676310Y-99755000D01*
X146335750Y-99755000D01*
X146177000Y-99913750D01*
X145923000Y-99913750D01*
X145764250Y-99755000D01*
X145423690Y-99755000D01*
X145190301Y-99851673D01*
X145011673Y-100030302D01*
X144915000Y-100263691D01*
X142617440Y-100263691D01*
X142617440Y-100180000D01*
X142568157Y-99932235D01*
X142427809Y-99722191D01*
X142217765Y-99581843D01*
X141970000Y-99532560D01*
X139970000Y-99532560D01*
X139722235Y-99581843D01*
X139512191Y-99722191D01*
X139371843Y-99932235D01*
X139322560Y-100180000D01*
X139322560Y-104680000D01*
X139371843Y-104927765D01*
X139512191Y-105137809D01*
X139722235Y-105278157D01*
X139970000Y-105327440D01*
X141970000Y-105327440D01*
X142217765Y-105278157D01*
X142427809Y-105137809D01*
X142568157Y-104927765D01*
X142617440Y-104680000D01*
X142617440Y-103826941D01*
X147195001Y-108404504D01*
X147195001Y-109294331D01*
X146985000Y-109252560D01*
X146385000Y-109252560D01*
X146137235Y-109301843D01*
X145927191Y-109442191D01*
X145786843Y-109652235D01*
X145737560Y-109900000D01*
X145737560Y-110965300D01*
X143405402Y-110965300D01*
X142885631Y-110445530D01*
X142843229Y-110382071D01*
X142617440Y-110231203D01*
X142617440Y-108680000D01*
X142568157Y-108432235D01*
X142427809Y-108222191D01*
X142217765Y-108081843D01*
X141970000Y-108032560D01*
X139970000Y-108032560D01*
X139722235Y-108081843D01*
X139512191Y-108222191D01*
X139371843Y-108432235D01*
X139322560Y-108680000D01*
X139322560Y-113180000D01*
X139371843Y-113427765D01*
X139512191Y-113637809D01*
X139722235Y-113778157D01*
X139970000Y-113827440D01*
X141374534Y-113827440D01*
X141201673Y-114000302D01*
X141105000Y-114233691D01*
X141105000Y-114484250D01*
X141263750Y-114643000D01*
X142113000Y-114643000D01*
X142113000Y-114623000D01*
X142367000Y-114623000D01*
X142367000Y-114643000D01*
X143216250Y-114643000D01*
X143375000Y-114484250D01*
X143375000Y-114233691D01*
X143645000Y-114233691D01*
X143645000Y-114484250D01*
X143803750Y-114643000D01*
X144653000Y-114643000D01*
X144653000Y-113883750D01*
X144494250Y-113725000D01*
X144153690Y-113725000D01*
X143920301Y-113821673D01*
X143741673Y-114000302D01*
X143645000Y-114233691D01*
X143375000Y-114233691D01*
X143278327Y-114000302D01*
X143099699Y-113821673D01*
X142866310Y-113725000D01*
X142525750Y-113725000D01*
X142367002Y-113883748D01*
X142367002Y-113725000D01*
X142297319Y-113725000D01*
X142427809Y-113637809D01*
X142568157Y-113427765D01*
X142617440Y-113180000D01*
X142617440Y-112323188D01*
X142794063Y-112441204D01*
X143015748Y-112485300D01*
X143015752Y-112485300D01*
X143090599Y-112500188D01*
X143165446Y-112485300D01*
X146610148Y-112485300D01*
X146685000Y-112500189D01*
X146981537Y-112441204D01*
X147232929Y-112273229D01*
X147400904Y-112021837D01*
X147405804Y-111997201D01*
X147407235Y-111998157D01*
X147655000Y-112047440D01*
X147820301Y-112047440D01*
X147820301Y-112825297D01*
X147273230Y-113372369D01*
X147209771Y-113414771D01*
X147041796Y-113666164D01*
X146997700Y-113887849D01*
X146997700Y-113887853D01*
X146982812Y-113962700D01*
X146997700Y-114037547D01*
X146997701Y-114840390D01*
X146811580Y-114654269D01*
X146431174Y-114496700D01*
X146019426Y-114496700D01*
X145819906Y-114579344D01*
X145915000Y-114484250D01*
X145915000Y-114233691D01*
X145818327Y-114000302D01*
X145639699Y-113821673D01*
X145406310Y-113725000D01*
X145065750Y-113725000D01*
X144907000Y-113883750D01*
X144907000Y-114643000D01*
X144927000Y-114643000D01*
X144927000Y-114765564D01*
X144883000Y-114756812D01*
X144808153Y-114771700D01*
X144808148Y-114771700D01*
X144586463Y-114815796D01*
X144464933Y-114897000D01*
X143803750Y-114897000D01*
X143645000Y-115055750D01*
X143645000Y-115175000D01*
X143375000Y-115175000D01*
X143375000Y-115055750D01*
X143216250Y-114897000D01*
X142367000Y-114897000D01*
X142367000Y-114917000D01*
X142113000Y-114917000D01*
X142113000Y-114897000D01*
X141263750Y-114897000D01*
X141105000Y-115055750D01*
X141105000Y-115306309D01*
X141201673Y-115539698D01*
X141234917Y-115572942D01*
X141141843Y-115712235D01*
X141092560Y-115960000D01*
X141092560Y-116780000D01*
X141141843Y-117027765D01*
X141282191Y-117237809D01*
X141480001Y-117369982D01*
X141480000Y-117580018D01*
X141282191Y-117712191D01*
X141141843Y-117922235D01*
X141092560Y-118170000D01*
X141092560Y-118840000D01*
X141124577Y-119000963D01*
X141056171Y-119046671D01*
X141013771Y-119110127D01*
X139215528Y-120908371D01*
X139152072Y-120950771D01*
X139109672Y-121014227D01*
X139109671Y-121014228D01*
X138984097Y-121202163D01*
X138925112Y-121498700D01*
X138940001Y-121573551D01*
X138940001Y-121692560D01*
X138850000Y-121692560D01*
X138602235Y-121741843D01*
X138392191Y-121882191D01*
X138251843Y-122092235D01*
X138202560Y-122340000D01*
X138202560Y-123725000D01*
X136684052Y-123725000D01*
X137290071Y-123320071D01*
X137719281Y-122677713D01*
X137870000Y-121920000D01*
X137719281Y-121162287D01*
X137290071Y-120519929D01*
X136647713Y-120090719D01*
X135890000Y-119940000D01*
X135132287Y-120090719D01*
X134489929Y-120519929D01*
X134085000Y-121125948D01*
X134085000Y-99854052D01*
X134489929Y-100460071D01*
X135132287Y-100889281D01*
X135890000Y-101040000D01*
X136647713Y-100889281D01*
X137290071Y-100460071D01*
X137719281Y-99817713D01*
X137870000Y-99060000D01*
X137719281Y-98302287D01*
X137290071Y-97659929D01*
X136684052Y-97255000D01*
X165575948Y-97255000D01*
X164969929Y-97659929D01*
X164969929Y-97659929D01*
G37*
X164969929Y-97659929D02*
X164540719Y-98302287D01*
X164390000Y-99060000D01*
X164540719Y-99817713D01*
X164969929Y-100460071D01*
X165612287Y-100889281D01*
X166370000Y-101040000D01*
X167127713Y-100889281D01*
X167770071Y-100460071D01*
X168175000Y-99854052D01*
X168175001Y-121125949D01*
X167770071Y-120519929D01*
X167127713Y-120090719D01*
X166370000Y-119940000D01*
X165612287Y-120090719D01*
X164969929Y-120519929D01*
X164540719Y-121162287D01*
X164390000Y-121920000D01*
X164540719Y-122677713D01*
X164969929Y-123320071D01*
X165575948Y-123725000D01*
X163917842Y-123725000D01*
X164001486Y-123546892D01*
X163880819Y-123317000D01*
X162687000Y-123317000D01*
X162687000Y-123337000D01*
X162433000Y-123337000D01*
X162433000Y-123317000D01*
X162413000Y-123317000D01*
X162413000Y-123063000D01*
X162433000Y-123063000D01*
X162433000Y-121869845D01*
X162687000Y-121869845D01*
X162687000Y-123063000D01*
X163880819Y-123063000D01*
X164001486Y-122833108D01*
X163755183Y-122308642D01*
X163326924Y-121918355D01*
X162916890Y-121748524D01*
X162687000Y-121869845D01*
X162433000Y-121869845D01*
X162203110Y-121748524D01*
X161793076Y-121918355D01*
X161364817Y-122308642D01*
X161303843Y-122438478D01*
X161090625Y-122119375D01*
X160780000Y-121911822D01*
X160780000Y-121675300D01*
X162485148Y-121675300D01*
X162560000Y-121690189D01*
X162856537Y-121631204D01*
X163107929Y-121463229D01*
X163275904Y-121211837D01*
X163279496Y-121193780D01*
X163307765Y-121188157D01*
X163517809Y-121047809D01*
X163658157Y-120837765D01*
X163707440Y-120590000D01*
X163707440Y-119920000D01*
X163658157Y-119672235D01*
X163517809Y-119462191D01*
X163394802Y-119380000D01*
X163517809Y-119297809D01*
X163658157Y-119087765D01*
X163707440Y-118840000D01*
X163707440Y-118170000D01*
X163658157Y-117922235D01*
X163517809Y-117712191D01*
X163307765Y-117571843D01*
X163279496Y-117566220D01*
X163275904Y-117548163D01*
X163107929Y-117296771D01*
X163044472Y-117254371D01*
X162850000Y-117059899D01*
X162850000Y-116599845D01*
X162957809Y-116527809D01*
X163098157Y-116317765D01*
X163147440Y-116070000D01*
X163147440Y-115070000D01*
X163098157Y-114822235D01*
X162957809Y-114612191D01*
X162747765Y-114471843D01*
X162500000Y-114422560D01*
X161833562Y-114422560D01*
X160873331Y-113462330D01*
X160830929Y-113398871D01*
X160579537Y-113230896D01*
X160357852Y-113186800D01*
X160357847Y-113186800D01*
X160283000Y-113171912D01*
X160208153Y-113186800D01*
X156384702Y-113186800D01*
X155237977Y-112040076D01*
X155275000Y-112047440D01*
X155875000Y-112047440D01*
X156122765Y-111998157D01*
X156332809Y-111857809D01*
X156473157Y-111647765D01*
X156522440Y-111400000D01*
X156522440Y-110334700D01*
X157315753Y-110334700D01*
X157390600Y-110349588D01*
X157465447Y-110334700D01*
X157465452Y-110334700D01*
X157687137Y-110290604D01*
X157938529Y-110122629D01*
X157974338Y-110069038D01*
X158027929Y-110033229D01*
X158195904Y-109781837D01*
X158199496Y-109763780D01*
X158227765Y-109758157D01*
X158437809Y-109617809D01*
X158578157Y-109407765D01*
X158627440Y-109160000D01*
X158627440Y-108340000D01*
X158578157Y-108092235D01*
X158483118Y-107950000D01*
X158578157Y-107807765D01*
X158627440Y-107560000D01*
X158627440Y-106740000D01*
X158578157Y-106492235D01*
X158437809Y-106282191D01*
X158227765Y-106141843D01*
X158199496Y-106136220D01*
X158195904Y-106118163D01*
X158027929Y-105866771D01*
X157974338Y-105830962D01*
X157938529Y-105777371D01*
X157687137Y-105609396D01*
X157465452Y-105565300D01*
X157465447Y-105565300D01*
X157390600Y-105550412D01*
X157315753Y-105565300D01*
X156522440Y-105565300D01*
X156522440Y-104500000D01*
X156473157Y-104252235D01*
X156332809Y-104042191D01*
X156122765Y-103901843D01*
X155875000Y-103852560D01*
X155275000Y-103852560D01*
X155027235Y-103901843D01*
X154948028Y-103954768D01*
X154731310Y-103865000D01*
X154590750Y-103865000D01*
X154432000Y-104023750D01*
X154432000Y-105123000D01*
X154452000Y-105123000D01*
X154452000Y-105377000D01*
X154432000Y-105377000D01*
X154432000Y-106476250D01*
X154590750Y-106635000D01*
X154731310Y-106635000D01*
X154851788Y-106585096D01*
X154859096Y-106621837D01*
X155027071Y-106873229D01*
X155278463Y-107041204D01*
X155500148Y-107085300D01*
X155575000Y-107100189D01*
X155649852Y-107085300D01*
X156332560Y-107085300D01*
X156332560Y-107560000D01*
X156381843Y-107807765D01*
X156476882Y-107950000D01*
X156381843Y-108092235D01*
X156332560Y-108340000D01*
X156332560Y-108814700D01*
X155649852Y-108814700D01*
X155575000Y-108799811D01*
X155500148Y-108814700D01*
X155278463Y-108858796D01*
X155027071Y-109026771D01*
X154941270Y-109155182D01*
X154895329Y-109086427D01*
X154852929Y-109022971D01*
X154789473Y-108980571D01*
X153977931Y-108169030D01*
X153935529Y-108105571D01*
X153684137Y-107937596D01*
X153462452Y-107893500D01*
X153462447Y-107893500D01*
X153393300Y-107879746D01*
X153393300Y-107558526D01*
X153235731Y-107178120D01*
X152944580Y-106886969D01*
X152564174Y-106729400D01*
X152509500Y-106729400D01*
X152509500Y-106602586D01*
X152735000Y-106647440D01*
X153335000Y-106647440D01*
X153582765Y-106598157D01*
X153661972Y-106545232D01*
X153878690Y-106635000D01*
X154019250Y-106635000D01*
X154178000Y-106476250D01*
X154178000Y-105377000D01*
X154158000Y-105377000D01*
X154158000Y-105123000D01*
X154178000Y-105123000D01*
X154178000Y-104023750D01*
X154019250Y-103865000D01*
X153878690Y-103865000D01*
X153758212Y-103914904D01*
X153750904Y-103878163D01*
X153582929Y-103626771D01*
X153519473Y-103584371D01*
X153264954Y-103329853D01*
X153357809Y-103267809D01*
X153498157Y-103057765D01*
X153547440Y-102810000D01*
X153547440Y-102732461D01*
X153805000Y-102474902D01*
X153805000Y-102527002D01*
X153963748Y-102527002D01*
X153805000Y-102685750D01*
X153805000Y-102936309D01*
X153901673Y-103169698D01*
X154080301Y-103348327D01*
X154313690Y-103445000D01*
X154654250Y-103445000D01*
X154813000Y-103286250D01*
X154813000Y-102527000D01*
X155067000Y-102527000D01*
X155067000Y-103286250D01*
X155225750Y-103445000D01*
X155566310Y-103445000D01*
X155799699Y-103348327D01*
X155978327Y-103169698D01*
X156075000Y-102936309D01*
X156075000Y-102685750D01*
X155916250Y-102527000D01*
X155067000Y-102527000D01*
X154813000Y-102527000D01*
X154793000Y-102527000D01*
X154793000Y-102273000D01*
X154813000Y-102273000D01*
X154813000Y-102253000D01*
X155067000Y-102253000D01*
X155067000Y-102273000D01*
X155916250Y-102273000D01*
X156075000Y-102114250D01*
X156075000Y-101863691D01*
X155978327Y-101630302D01*
X155945083Y-101597058D01*
X156038157Y-101457765D01*
X156087440Y-101210000D01*
X156087440Y-100390000D01*
X156038157Y-100142235D01*
X155897809Y-99932191D01*
X155687765Y-99791843D01*
X155440000Y-99742560D01*
X154440000Y-99742560D01*
X154192235Y-99791843D01*
X153982191Y-99932191D01*
X153890275Y-100069752D01*
X153818163Y-100084096D01*
X153566771Y-100252071D01*
X153530733Y-100306006D01*
X153498157Y-100142235D01*
X153357809Y-99932191D01*
X153147765Y-99791843D01*
X152900000Y-99742560D01*
X151900000Y-99742560D01*
X151652235Y-99791843D01*
X151442191Y-99932191D01*
X151420269Y-99965000D01*
X150839731Y-99965000D01*
X150817809Y-99932191D01*
X150607765Y-99791843D01*
X150360000Y-99742560D01*
X149360000Y-99742560D01*
X149112235Y-99791843D01*
X148902191Y-99932191D01*
X148761843Y-100142235D01*
X148712560Y-100390000D01*
X148712560Y-101054700D01*
X147535446Y-101054700D01*
X147460599Y-101039812D01*
X147385752Y-101054700D01*
X147385748Y-101054700D01*
X147185000Y-101094631D01*
X147185000Y-101085750D01*
X147026250Y-100927000D01*
X146177000Y-100927000D01*
X146177000Y-100947000D01*
X145923000Y-100947000D01*
X145923000Y-100927000D01*
X145073750Y-100927000D01*
X144915000Y-101085750D01*
X144915000Y-101336309D01*
X145011673Y-101569698D01*
X145044917Y-101602942D01*
X144951843Y-101742235D01*
X144902560Y-101990000D01*
X144902560Y-102810000D01*
X144951843Y-103057765D01*
X145092191Y-103267809D01*
X145302235Y-103408157D01*
X145330505Y-103413780D01*
X145334097Y-103431837D01*
X145456183Y-103614551D01*
X145502072Y-103683229D01*
X145565528Y-103725629D01*
X145909126Y-104069227D01*
X145786843Y-104252235D01*
X145737560Y-104500000D01*
X145737560Y-104797458D01*
X142885631Y-101945530D01*
X142843229Y-101882071D01*
X142617440Y-101731203D01*
X142617440Y-100263691D01*
X144915000Y-100263691D01*
X144915000Y-100514250D01*
X145073750Y-100673000D01*
X145923000Y-100673000D01*
X145923000Y-99913750D01*
X146177000Y-99913750D01*
X146177000Y-100673000D01*
X147026250Y-100673000D01*
X147185000Y-100514250D01*
X147185000Y-100263691D01*
X147088327Y-100030302D01*
X146909699Y-99851673D01*
X146676310Y-99755000D01*
X146335750Y-99755000D01*
X146177000Y-99913750D01*
X145923000Y-99913750D01*
X145764250Y-99755000D01*
X145423690Y-99755000D01*
X145190301Y-99851673D01*
X145011673Y-100030302D01*
X144915000Y-100263691D01*
X142617440Y-100263691D01*
X142617440Y-100180000D01*
X142568157Y-99932235D01*
X142427809Y-99722191D01*
X142217765Y-99581843D01*
X141970000Y-99532560D01*
X139970000Y-99532560D01*
X139722235Y-99581843D01*
X139512191Y-99722191D01*
X139371843Y-99932235D01*
X139322560Y-100180000D01*
X139322560Y-104680000D01*
X139371843Y-104927765D01*
X139512191Y-105137809D01*
X139722235Y-105278157D01*
X139970000Y-105327440D01*
X141970000Y-105327440D01*
X142217765Y-105278157D01*
X142427809Y-105137809D01*
X142568157Y-104927765D01*
X142617440Y-104680000D01*
X142617440Y-103826941D01*
X147195001Y-108404504D01*
X147195001Y-109294331D01*
X146985000Y-109252560D01*
X146385000Y-109252560D01*
X146137235Y-109301843D01*
X145927191Y-109442191D01*
X145786843Y-109652235D01*
X145737560Y-109900000D01*
X145737560Y-110965300D01*
X143405402Y-110965300D01*
X142885631Y-110445530D01*
X142843229Y-110382071D01*
X142617440Y-110231203D01*
X142617440Y-108680000D01*
X142568157Y-108432235D01*
X142427809Y-108222191D01*
X142217765Y-108081843D01*
X141970000Y-108032560D01*
X139970000Y-108032560D01*
X139722235Y-108081843D01*
X139512191Y-108222191D01*
X139371843Y-108432235D01*
X139322560Y-108680000D01*
X139322560Y-113180000D01*
X139371843Y-113427765D01*
X139512191Y-113637809D01*
X139722235Y-113778157D01*
X139970000Y-113827440D01*
X141374534Y-113827440D01*
X141201673Y-114000302D01*
X141105000Y-114233691D01*
X141105000Y-114484250D01*
X141263750Y-114643000D01*
X142113000Y-114643000D01*
X142113000Y-114623000D01*
X142367000Y-114623000D01*
X142367000Y-114643000D01*
X143216250Y-114643000D01*
X143375000Y-114484250D01*
X143375000Y-114233691D01*
X143645000Y-114233691D01*
X143645000Y-114484250D01*
X143803750Y-114643000D01*
X144653000Y-114643000D01*
X144653000Y-113883750D01*
X144494250Y-113725000D01*
X144153690Y-113725000D01*
X143920301Y-113821673D01*
X143741673Y-114000302D01*
X143645000Y-114233691D01*
X143375000Y-114233691D01*
X143278327Y-114000302D01*
X143099699Y-113821673D01*
X142866310Y-113725000D01*
X142525750Y-113725000D01*
X142367002Y-113883748D01*
X142367002Y-113725000D01*
X142297319Y-113725000D01*
X142427809Y-113637809D01*
X142568157Y-113427765D01*
X142617440Y-113180000D01*
X142617440Y-112323188D01*
X142794063Y-112441204D01*
X143015748Y-112485300D01*
X143015752Y-112485300D01*
X143090599Y-112500188D01*
X143165446Y-112485300D01*
X146610148Y-112485300D01*
X146685000Y-112500189D01*
X146981537Y-112441204D01*
X147232929Y-112273229D01*
X147400904Y-112021837D01*
X147405804Y-111997201D01*
X147407235Y-111998157D01*
X147655000Y-112047440D01*
X147820301Y-112047440D01*
X147820301Y-112825297D01*
X147273230Y-113372369D01*
X147209771Y-113414771D01*
X147041796Y-113666164D01*
X146997700Y-113887849D01*
X146997700Y-113887853D01*
X146982812Y-113962700D01*
X146997700Y-114037547D01*
X146997701Y-114840390D01*
X146811580Y-114654269D01*
X146431174Y-114496700D01*
X146019426Y-114496700D01*
X145819906Y-114579344D01*
X145915000Y-114484250D01*
X145915000Y-114233691D01*
X145818327Y-114000302D01*
X145639699Y-113821673D01*
X145406310Y-113725000D01*
X145065750Y-113725000D01*
X144907000Y-113883750D01*
X144907000Y-114643000D01*
X144927000Y-114643000D01*
X144927000Y-114765564D01*
X144883000Y-114756812D01*
X144808153Y-114771700D01*
X144808148Y-114771700D01*
X144586463Y-114815796D01*
X144464933Y-114897000D01*
X143803750Y-114897000D01*
X143645000Y-115055750D01*
X143645000Y-115175000D01*
X143375000Y-115175000D01*
X143375000Y-115055750D01*
X143216250Y-114897000D01*
X142367000Y-114897000D01*
X142367000Y-114917000D01*
X142113000Y-114917000D01*
X142113000Y-114897000D01*
X141263750Y-114897000D01*
X141105000Y-115055750D01*
X141105000Y-115306309D01*
X141201673Y-115539698D01*
X141234917Y-115572942D01*
X141141843Y-115712235D01*
X141092560Y-115960000D01*
X141092560Y-116780000D01*
X141141843Y-117027765D01*
X141282191Y-117237809D01*
X141480001Y-117369982D01*
X141480000Y-117580018D01*
X141282191Y-117712191D01*
X141141843Y-117922235D01*
X141092560Y-118170000D01*
X141092560Y-118840000D01*
X141124577Y-119000963D01*
X141056171Y-119046671D01*
X141013771Y-119110127D01*
X139215528Y-120908371D01*
X139152072Y-120950771D01*
X139109672Y-121014227D01*
X139109671Y-121014228D01*
X138984097Y-121202163D01*
X138925112Y-121498700D01*
X138940001Y-121573551D01*
X138940001Y-121692560D01*
X138850000Y-121692560D01*
X138602235Y-121741843D01*
X138392191Y-121882191D01*
X138251843Y-122092235D01*
X138202560Y-122340000D01*
X138202560Y-123725000D01*
X136684052Y-123725000D01*
X137290071Y-123320071D01*
X137719281Y-122677713D01*
X137870000Y-121920000D01*
X137719281Y-121162287D01*
X137290071Y-120519929D01*
X136647713Y-120090719D01*
X135890000Y-119940000D01*
X135132287Y-120090719D01*
X134489929Y-120519929D01*
X134085000Y-121125948D01*
X134085000Y-99854052D01*
X134489929Y-100460071D01*
X135132287Y-100889281D01*
X135890000Y-101040000D01*
X136647713Y-100889281D01*
X137290071Y-100460071D01*
X137719281Y-99817713D01*
X137870000Y-99060000D01*
X137719281Y-98302287D01*
X137290071Y-97659929D01*
X136684052Y-97255000D01*
X165575948Y-97255000D01*
X164969929Y-97659929D01*
G36*
X159541673Y-114710301D02*
X159445000Y-114943690D01*
X159445000Y-115284250D01*
X159603750Y-115443000D01*
X160363000Y-115443000D01*
X160363000Y-115423000D01*
X160594700Y-115423000D01*
X160594700Y-115495148D01*
X160579811Y-115570000D01*
X160617000Y-115756961D01*
X160617000Y-116546250D01*
X160775750Y-116705000D01*
X161026309Y-116705000D01*
X161259698Y-116608327D01*
X161292942Y-116575083D01*
X161330000Y-116599846D01*
X161330000Y-117299853D01*
X161315112Y-117374700D01*
X161330000Y-117449547D01*
X161330000Y-117449551D01*
X161374096Y-117671236D01*
X161501826Y-117862397D01*
X161461843Y-117922235D01*
X161412560Y-118170000D01*
X161412560Y-118840000D01*
X161461843Y-119087765D01*
X161602191Y-119297809D01*
X161725198Y-119380000D01*
X161602191Y-119462191D01*
X161461843Y-119672235D01*
X161412560Y-119920000D01*
X161412560Y-120155300D01*
X161167440Y-120155300D01*
X161167440Y-119920000D01*
X161118157Y-119672235D01*
X160977809Y-119462191D01*
X160862784Y-119385333D01*
X160879699Y-119378327D01*
X161058327Y-119199698D01*
X161155000Y-118966309D01*
X161155000Y-118790750D01*
X160996250Y-118632000D01*
X160147000Y-118632000D01*
X160147000Y-118652000D01*
X159893000Y-118652000D01*
X159893000Y-118632000D01*
X159043750Y-118632000D01*
X158885000Y-118790750D01*
X158885000Y-118966309D01*
X158981673Y-119199698D01*
X159160301Y-119378327D01*
X159177216Y-119385333D01*
X159062191Y-119462191D01*
X158921843Y-119672235D01*
X158872560Y-119920000D01*
X158872560Y-120590000D01*
X158921843Y-120837765D01*
X159062191Y-121047809D01*
X159260001Y-121179982D01*
X159260001Y-121911822D01*
X158949375Y-122119375D01*
X158750000Y-122417761D01*
X158550625Y-122119375D01*
X158240000Y-121911822D01*
X158240000Y-121179982D01*
X158437809Y-121047809D01*
X158578157Y-120837765D01*
X158627440Y-120590000D01*
X158627440Y-119920000D01*
X158578157Y-119672235D01*
X158437809Y-119462191D01*
X158322784Y-119385333D01*
X158339699Y-119378327D01*
X158518327Y-119199698D01*
X158615000Y-118966309D01*
X158615000Y-118790750D01*
X158456250Y-118632000D01*
X157607000Y-118632000D01*
X157607000Y-118652000D01*
X157353000Y-118652000D01*
X157353000Y-118632000D01*
X156503750Y-118632000D01*
X156345000Y-118790750D01*
X156345000Y-118966309D01*
X156441673Y-119199698D01*
X156620301Y-119378327D01*
X156637216Y-119385333D01*
X156522191Y-119462191D01*
X156500269Y-119495000D01*
X155919731Y-119495000D01*
X155897809Y-119462191D01*
X155774802Y-119380000D01*
X155897809Y-119297809D01*
X156038157Y-119087765D01*
X156087440Y-118840000D01*
X156087440Y-118170000D01*
X156062316Y-118043691D01*
X156345000Y-118043691D01*
X156345000Y-118219250D01*
X156503750Y-118378000D01*
X157353000Y-118378000D01*
X157353000Y-117693750D01*
X157607000Y-117693750D01*
X157607000Y-118378000D01*
X158456250Y-118378000D01*
X158615000Y-118219250D01*
X158615000Y-118043691D01*
X158885000Y-118043691D01*
X158885000Y-118219250D01*
X159043750Y-118378000D01*
X159893000Y-118378000D01*
X159893000Y-117693750D01*
X160147000Y-117693750D01*
X160147000Y-118378000D01*
X160996250Y-118378000D01*
X161155000Y-118219250D01*
X161155000Y-118043691D01*
X161058327Y-117810302D01*
X160879699Y-117631673D01*
X160646310Y-117535000D01*
X160305750Y-117535000D01*
X160147000Y-117693750D01*
X159893000Y-117693750D01*
X159734250Y-117535000D01*
X159393690Y-117535000D01*
X159160301Y-117631673D01*
X158981673Y-117810302D01*
X158885000Y-118043691D01*
X158615000Y-118043691D01*
X158518327Y-117810302D01*
X158339699Y-117631673D01*
X158106310Y-117535000D01*
X157765750Y-117535000D01*
X157607000Y-117693750D01*
X157353000Y-117693750D01*
X157194250Y-117535000D01*
X156853690Y-117535000D01*
X156620301Y-117631673D01*
X156441673Y-117810302D01*
X156345000Y-118043691D01*
X156062316Y-118043691D01*
X156038157Y-117922235D01*
X155978680Y-117833222D01*
X156008404Y-117788737D01*
X156052500Y-117567052D01*
X156052500Y-117567048D01*
X156067388Y-117492201D01*
X156052500Y-117417354D01*
X156052500Y-116671193D01*
X156067765Y-116668157D01*
X156207058Y-116575083D01*
X156240302Y-116608327D01*
X156473691Y-116705000D01*
X156724250Y-116705000D01*
X156883000Y-116546250D01*
X156883000Y-115697000D01*
X157137000Y-115697000D01*
X157137000Y-116546250D01*
X157295750Y-116705000D01*
X157546309Y-116705000D01*
X157779698Y-116608327D01*
X157958327Y-116429699D01*
X158055000Y-116196310D01*
X158055000Y-115855750D01*
X159445000Y-115855750D01*
X159445000Y-116196310D01*
X159541673Y-116429699D01*
X159720302Y-116608327D01*
X159953691Y-116705000D01*
X160204250Y-116705000D01*
X160363000Y-116546250D01*
X160363000Y-115697000D01*
X159603750Y-115697000D01*
X159445000Y-115855750D01*
X158055000Y-115855750D01*
X157896250Y-115697000D01*
X157137000Y-115697000D01*
X156883000Y-115697000D01*
X156863000Y-115697000D01*
X156863000Y-115443000D01*
X156883000Y-115443000D01*
X156883000Y-115423000D01*
X157137000Y-115423000D01*
X157137000Y-115443000D01*
X157896250Y-115443000D01*
X158055000Y-115284250D01*
X158055000Y-114943690D01*
X157958327Y-114710301D01*
X157954826Y-114706800D01*
X159545174Y-114706800D01*
X159541673Y-114710301D01*
X159541673Y-114710301D01*
G37*
X159541673Y-114710301D02*
X159445000Y-114943690D01*
X159445000Y-115284250D01*
X159603750Y-115443000D01*
X160363000Y-115443000D01*
X160363000Y-115423000D01*
X160594700Y-115423000D01*
X160594700Y-115495148D01*
X160579811Y-115570000D01*
X160617000Y-115756961D01*
X160617000Y-116546250D01*
X160775750Y-116705000D01*
X161026309Y-116705000D01*
X161259698Y-116608327D01*
X161292942Y-116575083D01*
X161330000Y-116599846D01*
X161330000Y-117299853D01*
X161315112Y-117374700D01*
X161330000Y-117449547D01*
X161330000Y-117449551D01*
X161374096Y-117671236D01*
X161501826Y-117862397D01*
X161461843Y-117922235D01*
X161412560Y-118170000D01*
X161412560Y-118840000D01*
X161461843Y-119087765D01*
X161602191Y-119297809D01*
X161725198Y-119380000D01*
X161602191Y-119462191D01*
X161461843Y-119672235D01*
X161412560Y-119920000D01*
X161412560Y-120155300D01*
X161167440Y-120155300D01*
X161167440Y-119920000D01*
X161118157Y-119672235D01*
X160977809Y-119462191D01*
X160862784Y-119385333D01*
X160879699Y-119378327D01*
X161058327Y-119199698D01*
X161155000Y-118966309D01*
X161155000Y-118790750D01*
X160996250Y-118632000D01*
X160147000Y-118632000D01*
X160147000Y-118652000D01*
X159893000Y-118652000D01*
X159893000Y-118632000D01*
X159043750Y-118632000D01*
X158885000Y-118790750D01*
X158885000Y-118966309D01*
X158981673Y-119199698D01*
X159160301Y-119378327D01*
X159177216Y-119385333D01*
X159062191Y-119462191D01*
X158921843Y-119672235D01*
X158872560Y-119920000D01*
X158872560Y-120590000D01*
X158921843Y-120837765D01*
X159062191Y-121047809D01*
X159260001Y-121179982D01*
X159260001Y-121911822D01*
X158949375Y-122119375D01*
X158750000Y-122417761D01*
X158550625Y-122119375D01*
X158240000Y-121911822D01*
X158240000Y-121179982D01*
X158437809Y-121047809D01*
X158578157Y-120837765D01*
X158627440Y-120590000D01*
X158627440Y-119920000D01*
X158578157Y-119672235D01*
X158437809Y-119462191D01*
X158322784Y-119385333D01*
X158339699Y-119378327D01*
X158518327Y-119199698D01*
X158615000Y-118966309D01*
X158615000Y-118790750D01*
X158456250Y-118632000D01*
X157607000Y-118632000D01*
X157607000Y-118652000D01*
X157353000Y-118652000D01*
X157353000Y-118632000D01*
X156503750Y-118632000D01*
X156345000Y-118790750D01*
X156345000Y-118966309D01*
X156441673Y-119199698D01*
X156620301Y-119378327D01*
X156637216Y-119385333D01*
X156522191Y-119462191D01*
X156500269Y-119495000D01*
X155919731Y-119495000D01*
X155897809Y-119462191D01*
X155774802Y-119380000D01*
X155897809Y-119297809D01*
X156038157Y-119087765D01*
X156087440Y-118840000D01*
X156087440Y-118170000D01*
X156062316Y-118043691D01*
X156345000Y-118043691D01*
X156345000Y-118219250D01*
X156503750Y-118378000D01*
X157353000Y-118378000D01*
X157353000Y-117693750D01*
X157607000Y-117693750D01*
X157607000Y-118378000D01*
X158456250Y-118378000D01*
X158615000Y-118219250D01*
X158615000Y-118043691D01*
X158885000Y-118043691D01*
X158885000Y-118219250D01*
X159043750Y-118378000D01*
X159893000Y-118378000D01*
X159893000Y-117693750D01*
X160147000Y-117693750D01*
X160147000Y-118378000D01*
X160996250Y-118378000D01*
X161155000Y-118219250D01*
X161155000Y-118043691D01*
X161058327Y-117810302D01*
X160879699Y-117631673D01*
X160646310Y-117535000D01*
X160305750Y-117535000D01*
X160147000Y-117693750D01*
X159893000Y-117693750D01*
X159734250Y-117535000D01*
X159393690Y-117535000D01*
X159160301Y-117631673D01*
X158981673Y-117810302D01*
X158885000Y-118043691D01*
X158615000Y-118043691D01*
X158518327Y-117810302D01*
X158339699Y-117631673D01*
X158106310Y-117535000D01*
X157765750Y-117535000D01*
X157607000Y-117693750D01*
X157353000Y-117693750D01*
X157194250Y-117535000D01*
X156853690Y-117535000D01*
X156620301Y-117631673D01*
X156441673Y-117810302D01*
X156345000Y-118043691D01*
X156062316Y-118043691D01*
X156038157Y-117922235D01*
X155978680Y-117833222D01*
X156008404Y-117788737D01*
X156052500Y-117567052D01*
X156052500Y-117567048D01*
X156067388Y-117492201D01*
X156052500Y-117417354D01*
X156052500Y-116671193D01*
X156067765Y-116668157D01*
X156207058Y-116575083D01*
X156240302Y-116608327D01*
X156473691Y-116705000D01*
X156724250Y-116705000D01*
X156883000Y-116546250D01*
X156883000Y-115697000D01*
X157137000Y-115697000D01*
X157137000Y-116546250D01*
X157295750Y-116705000D01*
X157546309Y-116705000D01*
X157779698Y-116608327D01*
X157958327Y-116429699D01*
X158055000Y-116196310D01*
X158055000Y-115855750D01*
X159445000Y-115855750D01*
X159445000Y-116196310D01*
X159541673Y-116429699D01*
X159720302Y-116608327D01*
X159953691Y-116705000D01*
X160204250Y-116705000D01*
X160363000Y-116546250D01*
X160363000Y-115697000D01*
X159603750Y-115697000D01*
X159445000Y-115855750D01*
X158055000Y-115855750D01*
X157896250Y-115697000D01*
X157137000Y-115697000D01*
X156883000Y-115697000D01*
X156863000Y-115697000D01*
X156863000Y-115443000D01*
X156883000Y-115443000D01*
X156883000Y-115423000D01*
X157137000Y-115423000D01*
X157137000Y-115443000D01*
X157896250Y-115443000D01*
X158055000Y-115284250D01*
X158055000Y-114943690D01*
X157958327Y-114710301D01*
X157954826Y-114706800D01*
X159545174Y-114706800D01*
X159541673Y-114710301D01*
G36*
X154352560Y-115704863D02*
X154352560Y-116070000D01*
X154401843Y-116317765D01*
X154532500Y-116513306D01*
X154532501Y-117177398D01*
X154455528Y-117254371D01*
X154392072Y-117296771D01*
X154349672Y-117360227D01*
X154349671Y-117360228D01*
X154289987Y-117449552D01*
X154224097Y-117548163D01*
X154220505Y-117566220D01*
X154192235Y-117571843D01*
X153982191Y-117712191D01*
X153841843Y-117922235D01*
X153792560Y-118170000D01*
X153792560Y-118840000D01*
X153841843Y-119087765D01*
X153982191Y-119297809D01*
X154105198Y-119380000D01*
X153982191Y-119462191D01*
X153841843Y-119672235D01*
X153813720Y-119813619D01*
X151257002Y-117256901D01*
X151257002Y-117256252D01*
X151415750Y-117415000D01*
X151756310Y-117415000D01*
X151989699Y-117318327D01*
X152168327Y-117139698D01*
X152265000Y-116906309D01*
X152265000Y-116655750D01*
X152106250Y-116497000D01*
X151257000Y-116497000D01*
X151257000Y-116517000D01*
X151024100Y-116517000D01*
X151024100Y-116265400D01*
X151702353Y-116265400D01*
X151777200Y-116280288D01*
X151852047Y-116265400D01*
X151852052Y-116265400D01*
X151964664Y-116243000D01*
X152106250Y-116243000D01*
X152237105Y-116112145D01*
X152325129Y-116053329D01*
X152367531Y-115989870D01*
X152439870Y-115917531D01*
X152503329Y-115875129D01*
X152671304Y-115623737D01*
X152715400Y-115402052D01*
X152715400Y-115402047D01*
X152730288Y-115327200D01*
X152715400Y-115252353D01*
X152715400Y-114263748D01*
X152730288Y-114188900D01*
X152715400Y-114114052D01*
X152715400Y-114114048D01*
X152703892Y-114056194D01*
X154352560Y-115704863D01*
X154352560Y-115704863D01*
G37*
X154352560Y-115704863D02*
X154352560Y-116070000D01*
X154401843Y-116317765D01*
X154532500Y-116513306D01*
X154532501Y-117177398D01*
X154455528Y-117254371D01*
X154392072Y-117296771D01*
X154349672Y-117360227D01*
X154349671Y-117360228D01*
X154289987Y-117449552D01*
X154224097Y-117548163D01*
X154220505Y-117566220D01*
X154192235Y-117571843D01*
X153982191Y-117712191D01*
X153841843Y-117922235D01*
X153792560Y-118170000D01*
X153792560Y-118840000D01*
X153841843Y-119087765D01*
X153982191Y-119297809D01*
X154105198Y-119380000D01*
X153982191Y-119462191D01*
X153841843Y-119672235D01*
X153813720Y-119813619D01*
X151257002Y-117256901D01*
X151257002Y-117256252D01*
X151415750Y-117415000D01*
X151756310Y-117415000D01*
X151989699Y-117318327D01*
X152168327Y-117139698D01*
X152265000Y-116906309D01*
X152265000Y-116655750D01*
X152106250Y-116497000D01*
X151257000Y-116497000D01*
X151257000Y-116517000D01*
X151024100Y-116517000D01*
X151024100Y-116265400D01*
X151702353Y-116265400D01*
X151777200Y-116280288D01*
X151852047Y-116265400D01*
X151852052Y-116265400D01*
X151964664Y-116243000D01*
X152106250Y-116243000D01*
X152237105Y-116112145D01*
X152325129Y-116053329D01*
X152367531Y-115989870D01*
X152439870Y-115917531D01*
X152503329Y-115875129D01*
X152671304Y-115623737D01*
X152715400Y-115402052D01*
X152715400Y-115402047D01*
X152730288Y-115327200D01*
X152715400Y-115252353D01*
X152715400Y-114263748D01*
X152730288Y-114188900D01*
X152715400Y-114114052D01*
X152715400Y-114114048D01*
X152703892Y-114056194D01*
X154352560Y-115704863D01*
M02*
