M48
INCH,TZ
T1C0.0157
T2C0.0394
%
G90
G05
T1
X53000Y-40000
X53000Y-42000
X53000Y-44500
X53000Y-47000
X54500Y-38500
X56500Y-45752
X57000Y-38500
X57569Y-45485
X59181Y-42777
X59346Y-44106
X59500Y-38500
X59636Y-41969
X59984Y-42427
X62000Y-38500
X64500Y-38500
X66000Y-40000
X66000Y-42000
X66000Y-44500
X66000Y-47000
T2
X55000Y-48500
X56000Y-48500
X57000Y-48500
X58000Y-48500
X59000Y-48500
X60000Y-48500
X61000Y-48500
X62000Y-48500
X63000Y-48500
X64000Y-48500
T0
M30
