G04 #@! TF.GenerationSoftware,KiCad,Pcbnew,(2018-02-15 revision 29b28de31)-makepkg*
G04 #@! TF.CreationDate,2018-12-22T18:26:03+03:00*
G04 #@! TF.ProjectId,CS5490_Breakout,4353353439305F427265616B6F75742E,rev?*
G04 #@! TF.SameCoordinates,Original*
G04 #@! TF.FileFunction,Copper,L2,Bot,Signal*
G04 #@! TF.FilePolarity,Positive*
%FSLAX46Y46*%
G04 Gerber Fmt 4.6, Leading zero omitted, Abs format (unit mm)*
G04 Created by KiCad (PCBNEW (2018-02-15 revision 29b28de31)-makepkg) date 12/22/18 18:26:03*
%MOMM*%
%LPD*%
G01*
G04 APERTURE LIST*
%ADD10R,1.700000X1.700000*%
%ADD11O,1.700000X1.700000*%
%ADD12C,0.800000*%
%ADD13C,0.250000*%
%ADD14C,0.254000*%
G04 APERTURE END LIST*
D10*
X139700000Y-123190000D03*
D11*
X142240000Y-123190000D03*
X144780000Y-123190000D03*
X147320000Y-123190000D03*
X149860000Y-123190000D03*
X152400000Y-123190000D03*
X154940000Y-123190000D03*
X157480000Y-123190000D03*
X160020000Y-123190000D03*
X162560000Y-123190000D03*
D12*
X150738800Y-112029500D03*
X143510000Y-116210000D03*
X150320200Y-108653500D03*
X146225300Y-115531700D03*
X167640000Y-119380000D03*
X167640000Y-113030000D03*
X167640000Y-106680000D03*
X167640000Y-101600000D03*
X134620000Y-101600000D03*
X134620000Y-106680000D03*
X134620000Y-113030000D03*
X134620000Y-119380000D03*
X163830000Y-97790000D03*
X157480000Y-97790000D03*
X151130000Y-97790000D03*
X144780000Y-97790000D03*
X138430000Y-97790000D03*
X152358300Y-107764400D03*
X151474500Y-106600300D03*
D13*
X143586000Y-116286000D02*
X143510000Y-116210000D01*
X146565100Y-116286000D02*
X143586000Y-116286000D01*
X150738800Y-112112300D02*
X146565100Y-116286000D01*
X150738800Y-112029500D02*
X150738800Y-112112300D01*
X146225300Y-112748400D02*
X150320200Y-108653500D01*
X146225300Y-115531700D02*
X146225300Y-112748400D01*
X152358300Y-121973000D02*
X152400000Y-122014700D01*
X152358300Y-107764400D02*
X152358300Y-121973000D01*
X152400000Y-123190000D02*
X152400000Y-122014700D01*
X151474500Y-120400200D02*
X151474500Y-106600300D01*
X149860000Y-122014700D02*
X151474500Y-120400200D01*
X149860000Y-123190000D02*
X149860000Y-122014700D01*
D14*
G36*
X164969929Y-97659929D02*
X164540719Y-98302287D01*
X164390000Y-99060000D01*
X164540719Y-99817713D01*
X164969929Y-100460071D01*
X165612287Y-100889281D01*
X166370000Y-101040000D01*
X167127713Y-100889281D01*
X167770071Y-100460071D01*
X168175000Y-99854052D01*
X168175001Y-121125949D01*
X167770071Y-120519929D01*
X167127713Y-120090719D01*
X166370000Y-119940000D01*
X165612287Y-120090719D01*
X164969929Y-120519929D01*
X164540719Y-121162287D01*
X164390000Y-121920000D01*
X164540719Y-122677713D01*
X164969929Y-123320071D01*
X165575948Y-123725000D01*
X163917842Y-123725000D01*
X164001486Y-123546892D01*
X163880819Y-123317000D01*
X162687000Y-123317000D01*
X162687000Y-123337000D01*
X162433000Y-123337000D01*
X162433000Y-123317000D01*
X162413000Y-123317000D01*
X162413000Y-123063000D01*
X162433000Y-123063000D01*
X162433000Y-121869845D01*
X162687000Y-121869845D01*
X162687000Y-123063000D01*
X163880819Y-123063000D01*
X164001486Y-122833108D01*
X163755183Y-122308642D01*
X163326924Y-121918355D01*
X162916890Y-121748524D01*
X162687000Y-121869845D01*
X162433000Y-121869845D01*
X162203110Y-121748524D01*
X161793076Y-121918355D01*
X161364817Y-122308642D01*
X161303843Y-122438478D01*
X161090625Y-122119375D01*
X160599418Y-121791161D01*
X160166256Y-121705000D01*
X159873744Y-121705000D01*
X159440582Y-121791161D01*
X158949375Y-122119375D01*
X158750000Y-122417761D01*
X158550625Y-122119375D01*
X158059418Y-121791161D01*
X157626256Y-121705000D01*
X157333744Y-121705000D01*
X156900582Y-121791161D01*
X156409375Y-122119375D01*
X156210000Y-122417761D01*
X156010625Y-122119375D01*
X155519418Y-121791161D01*
X155086256Y-121705000D01*
X154793744Y-121705000D01*
X154360582Y-121791161D01*
X153869375Y-122119375D01*
X153670000Y-122417761D01*
X153470625Y-122119375D01*
X153153571Y-121907526D01*
X153118300Y-121730208D01*
X153118300Y-108468111D01*
X153235731Y-108350680D01*
X153393300Y-107970274D01*
X153393300Y-107558526D01*
X153235731Y-107178120D01*
X152944580Y-106886969D01*
X152564174Y-106729400D01*
X152509500Y-106729400D01*
X152509500Y-106394426D01*
X152351931Y-106014020D01*
X152060780Y-105722869D01*
X151680374Y-105565300D01*
X151268626Y-105565300D01*
X150888220Y-105722869D01*
X150597069Y-106014020D01*
X150439500Y-106394426D01*
X150439500Y-106806174D01*
X150597069Y-107186580D01*
X150714501Y-107304012D01*
X150714501Y-107696549D01*
X150526074Y-107618500D01*
X150114326Y-107618500D01*
X149733920Y-107776069D01*
X149442769Y-108067220D01*
X149285200Y-108447626D01*
X149285200Y-108613698D01*
X145740828Y-112158071D01*
X145677372Y-112200471D01*
X145634972Y-112263927D01*
X145634971Y-112263928D01*
X145509397Y-112451863D01*
X145450412Y-112748400D01*
X145465301Y-112823252D01*
X145465300Y-114827989D01*
X145347869Y-114945420D01*
X145190300Y-115325826D01*
X145190300Y-115526000D01*
X144289711Y-115526000D01*
X144096280Y-115332569D01*
X143715874Y-115175000D01*
X143304126Y-115175000D01*
X142923720Y-115332569D01*
X142632569Y-115623720D01*
X142475000Y-116004126D01*
X142475000Y-116415874D01*
X142632569Y-116796280D01*
X142923720Y-117087431D01*
X143304126Y-117245000D01*
X143715874Y-117245000D01*
X144096280Y-117087431D01*
X144137711Y-117046000D01*
X146490253Y-117046000D01*
X146565100Y-117060888D01*
X146639947Y-117046000D01*
X146639952Y-117046000D01*
X146861637Y-117001904D01*
X147113029Y-116833929D01*
X147155431Y-116770470D01*
X150714501Y-113211401D01*
X150714500Y-120085398D01*
X149375528Y-121424371D01*
X149312072Y-121466771D01*
X149144097Y-121718163D01*
X149113926Y-121869845D01*
X149106430Y-121907525D01*
X148789375Y-122119375D01*
X148590000Y-122417761D01*
X148390625Y-122119375D01*
X147899418Y-121791161D01*
X147466256Y-121705000D01*
X147173744Y-121705000D01*
X146740582Y-121791161D01*
X146249375Y-122119375D01*
X146050000Y-122417761D01*
X145850625Y-122119375D01*
X145359418Y-121791161D01*
X144926256Y-121705000D01*
X144633744Y-121705000D01*
X144200582Y-121791161D01*
X143709375Y-122119375D01*
X143510000Y-122417761D01*
X143310625Y-122119375D01*
X142819418Y-121791161D01*
X142386256Y-121705000D01*
X142093744Y-121705000D01*
X141660582Y-121791161D01*
X141169375Y-122119375D01*
X141157184Y-122137619D01*
X141148157Y-122092235D01*
X141007809Y-121882191D01*
X140797765Y-121741843D01*
X140550000Y-121692560D01*
X138850000Y-121692560D01*
X138602235Y-121741843D01*
X138392191Y-121882191D01*
X138251843Y-122092235D01*
X138202560Y-122340000D01*
X138202560Y-123725000D01*
X136684052Y-123725000D01*
X137290071Y-123320071D01*
X137719281Y-122677713D01*
X137870000Y-121920000D01*
X137719281Y-121162287D01*
X137290071Y-120519929D01*
X136647713Y-120090719D01*
X135890000Y-119940000D01*
X135132287Y-120090719D01*
X134489929Y-120519929D01*
X134085000Y-121125948D01*
X134085000Y-99854052D01*
X134489929Y-100460071D01*
X135132287Y-100889281D01*
X135890000Y-101040000D01*
X136647713Y-100889281D01*
X137290071Y-100460071D01*
X137719281Y-99817713D01*
X137870000Y-99060000D01*
X137719281Y-98302287D01*
X137290071Y-97659929D01*
X136684052Y-97255000D01*
X165575948Y-97255000D01*
X164969929Y-97659929D01*
X164969929Y-97659929D01*
G37*
X164969929Y-97659929D02*
X164540719Y-98302287D01*
X164390000Y-99060000D01*
X164540719Y-99817713D01*
X164969929Y-100460071D01*
X165612287Y-100889281D01*
X166370000Y-101040000D01*
X167127713Y-100889281D01*
X167770071Y-100460071D01*
X168175000Y-99854052D01*
X168175001Y-121125949D01*
X167770071Y-120519929D01*
X167127713Y-120090719D01*
X166370000Y-119940000D01*
X165612287Y-120090719D01*
X164969929Y-120519929D01*
X164540719Y-121162287D01*
X164390000Y-121920000D01*
X164540719Y-122677713D01*
X164969929Y-123320071D01*
X165575948Y-123725000D01*
X163917842Y-123725000D01*
X164001486Y-123546892D01*
X163880819Y-123317000D01*
X162687000Y-123317000D01*
X162687000Y-123337000D01*
X162433000Y-123337000D01*
X162433000Y-123317000D01*
X162413000Y-123317000D01*
X162413000Y-123063000D01*
X162433000Y-123063000D01*
X162433000Y-121869845D01*
X162687000Y-121869845D01*
X162687000Y-123063000D01*
X163880819Y-123063000D01*
X164001486Y-122833108D01*
X163755183Y-122308642D01*
X163326924Y-121918355D01*
X162916890Y-121748524D01*
X162687000Y-121869845D01*
X162433000Y-121869845D01*
X162203110Y-121748524D01*
X161793076Y-121918355D01*
X161364817Y-122308642D01*
X161303843Y-122438478D01*
X161090625Y-122119375D01*
X160599418Y-121791161D01*
X160166256Y-121705000D01*
X159873744Y-121705000D01*
X159440582Y-121791161D01*
X158949375Y-122119375D01*
X158750000Y-122417761D01*
X158550625Y-122119375D01*
X158059418Y-121791161D01*
X157626256Y-121705000D01*
X157333744Y-121705000D01*
X156900582Y-121791161D01*
X156409375Y-122119375D01*
X156210000Y-122417761D01*
X156010625Y-122119375D01*
X155519418Y-121791161D01*
X155086256Y-121705000D01*
X154793744Y-121705000D01*
X154360582Y-121791161D01*
X153869375Y-122119375D01*
X153670000Y-122417761D01*
X153470625Y-122119375D01*
X153153571Y-121907526D01*
X153118300Y-121730208D01*
X153118300Y-108468111D01*
X153235731Y-108350680D01*
X153393300Y-107970274D01*
X153393300Y-107558526D01*
X153235731Y-107178120D01*
X152944580Y-106886969D01*
X152564174Y-106729400D01*
X152509500Y-106729400D01*
X152509500Y-106394426D01*
X152351931Y-106014020D01*
X152060780Y-105722869D01*
X151680374Y-105565300D01*
X151268626Y-105565300D01*
X150888220Y-105722869D01*
X150597069Y-106014020D01*
X150439500Y-106394426D01*
X150439500Y-106806174D01*
X150597069Y-107186580D01*
X150714501Y-107304012D01*
X150714501Y-107696549D01*
X150526074Y-107618500D01*
X150114326Y-107618500D01*
X149733920Y-107776069D01*
X149442769Y-108067220D01*
X149285200Y-108447626D01*
X149285200Y-108613698D01*
X145740828Y-112158071D01*
X145677372Y-112200471D01*
X145634972Y-112263927D01*
X145634971Y-112263928D01*
X145509397Y-112451863D01*
X145450412Y-112748400D01*
X145465301Y-112823252D01*
X145465300Y-114827989D01*
X145347869Y-114945420D01*
X145190300Y-115325826D01*
X145190300Y-115526000D01*
X144289711Y-115526000D01*
X144096280Y-115332569D01*
X143715874Y-115175000D01*
X143304126Y-115175000D01*
X142923720Y-115332569D01*
X142632569Y-115623720D01*
X142475000Y-116004126D01*
X142475000Y-116415874D01*
X142632569Y-116796280D01*
X142923720Y-117087431D01*
X143304126Y-117245000D01*
X143715874Y-117245000D01*
X144096280Y-117087431D01*
X144137711Y-117046000D01*
X146490253Y-117046000D01*
X146565100Y-117060888D01*
X146639947Y-117046000D01*
X146639952Y-117046000D01*
X146861637Y-117001904D01*
X147113029Y-116833929D01*
X147155431Y-116770470D01*
X150714501Y-113211401D01*
X150714500Y-120085398D01*
X149375528Y-121424371D01*
X149312072Y-121466771D01*
X149144097Y-121718163D01*
X149113926Y-121869845D01*
X149106430Y-121907525D01*
X148789375Y-122119375D01*
X148590000Y-122417761D01*
X148390625Y-122119375D01*
X147899418Y-121791161D01*
X147466256Y-121705000D01*
X147173744Y-121705000D01*
X146740582Y-121791161D01*
X146249375Y-122119375D01*
X146050000Y-122417761D01*
X145850625Y-122119375D01*
X145359418Y-121791161D01*
X144926256Y-121705000D01*
X144633744Y-121705000D01*
X144200582Y-121791161D01*
X143709375Y-122119375D01*
X143510000Y-122417761D01*
X143310625Y-122119375D01*
X142819418Y-121791161D01*
X142386256Y-121705000D01*
X142093744Y-121705000D01*
X141660582Y-121791161D01*
X141169375Y-122119375D01*
X141157184Y-122137619D01*
X141148157Y-122092235D01*
X141007809Y-121882191D01*
X140797765Y-121741843D01*
X140550000Y-121692560D01*
X138850000Y-121692560D01*
X138602235Y-121741843D01*
X138392191Y-121882191D01*
X138251843Y-122092235D01*
X138202560Y-122340000D01*
X138202560Y-123725000D01*
X136684052Y-123725000D01*
X137290071Y-123320071D01*
X137719281Y-122677713D01*
X137870000Y-121920000D01*
X137719281Y-121162287D01*
X137290071Y-120519929D01*
X136647713Y-120090719D01*
X135890000Y-119940000D01*
X135132287Y-120090719D01*
X134489929Y-120519929D01*
X134085000Y-121125948D01*
X134085000Y-99854052D01*
X134489929Y-100460071D01*
X135132287Y-100889281D01*
X135890000Y-101040000D01*
X136647713Y-100889281D01*
X137290071Y-100460071D01*
X137719281Y-99817713D01*
X137870000Y-99060000D01*
X137719281Y-98302287D01*
X137290071Y-97659929D01*
X136684052Y-97255000D01*
X165575948Y-97255000D01*
X164969929Y-97659929D01*
M02*
